solid arduino_car_PRINTED.skpb
facet normal 2.8612044101683134e-17 -2.2015104607278474e-16 -1.0
  outer loop
    vertex 240.23843980753244 137.94202367165363 45.42999999999997
    vertex 240.2384398075324 132.2258923396417 45.42999999999997
    vertex 239.9405201692227 135.08395800564764 45.42999999999997
  endloop
endfacet
facet normal 2.8612044101683134e-17 -2.2015104607278474e-16 -1.0
  outer loop
    vertex 240.2384398075324 132.2258923396417 45.42999999999997
    vertex 240.23843980753244 137.94202367165363 45.42999999999997
    vertex 241.11938959454523 129.4907099079098 45.42999999999997
  endloop
endfacet
facet normal 2.8612044101683134e-17 -2.2015104607278474e-16 -1.0
  outer loop
    vertex 241.11938959454523 129.4907099079098 45.42999999999997
    vertex 240.23843980753244 137.94202367165363 45.42999999999997
    vertex 241.11938959454523 140.67720610338552 45.42999999999997
  endloop
endfacet
facet normal 2.8612044101683134e-17 -2.2015104607278474e-16 -1.0
  outer loop
    vertex 241.11938959454523 129.4907099079098 45.42999999999997
    vertex 241.11938959454523 140.67720610338552 45.42999999999997
    vertex 242.54549287810832 143.171905461365 45.42999999999997
  endloop
endfacet
facet normal 2.8612044101683134e-17 -2.2015104607278474e-16 -1.0
  outer loop
    vertex 241.11938959454523 129.4907099079098 45.42999999999997
    vertex 242.54549287810832 143.171905461365 45.42999999999997
    vertex 242.54549287810832 126.99601054993032 45.42999999999997
  endloop
endfacet
facet normal 2.8612044101683134e-17 -2.2015104607278474e-16 -1.0
  outer loop
    vertex 242.54549287810832 126.99601054993032 45.42999999999997
    vertex 242.54549287810832 143.171905461365 45.42999999999997
    vertex 244.45543399778134 145.31886153485019 45.42999999999997
  endloop
endfacet
facet normal 2.8612044101683134e-17 -2.2015104607278474e-16 -1.0
  outer loop
    vertex 242.54549287810832 126.99601054993032 45.42999999999997
    vertex 244.45543399778134 145.31886153485019 45.42999999999997
    vertex 244.45543399778128 124.84905447644513 45.42999999999997
  endloop
endfacet
facet normal 2.8612044101683134e-17 -2.2015104607278474e-16 -1.0
  outer loop
    vertex 244.45543399778128 124.84905447644513 45.42999999999997
    vertex 244.45543399778134 145.31886153485019 45.42999999999997
    vertex 246.76709456669508 123.14215059039238 45.42999999999997
  endloop
endfacet
facet normal 2.8612044101683134e-17 -2.2015104607278474e-16 -1.0
  outer loop
    vertex 246.76709456669508 123.14215059039238 45.42999999999997
    vertex 244.45543399778134 145.31886153485019 45.42999999999997
    vertex 246.7670945666951 147.02576542090293 45.42999999999997
  endloop
endfacet
facet normal 2.8612044101683134e-17 -2.2015104607278474e-16 -1.0
  outer loop
    vertex 246.76709456669508 123.14215059039238 45.42999999999997
    vertex 246.7670945666951 147.02576542090293 45.42999999999997
    vertex 249.3810841717354 121.94868764298516 45.42999999999997
  endloop
endfacet
facet normal 2.8612044101683134e-17 -2.2015104607278474e-16 -1.0
  outer loop
    vertex 249.3810841717354 121.94868764298516 45.42999999999997
    vertex 246.7670945666951 147.02576542090293 45.42999999999997
    vertex 249.3810841717354 148.21922836831016 45.42999999999997
  endloop
endfacet
facet normal 2.8612044101683134e-17 -2.2015104607278474e-16 -1.0
  outer loop
    vertex 252.0117943821772 184.65219849298774 45.43
    vertex 249.3810841717354 148.21922836831016 45.42999999999997
    vertex 249.3810841717354 185.08395800581422 45.43
  endloop
endfacet
facet normal 2.8612044101683134e-17 -2.2015104607278474e-16 -1.0
  outer loop
    vertex 249.3810841717354 148.21922836831016 45.42999999999997
    vertex 252.0117943821772 184.65219849298774 45.43
    vertex 249.3810841717354 121.94868764298516 45.42999999999997
  endloop
endfacet
facet normal 2.8612044101683134e-17 -2.2015104607278474e-16 -1.0
  outer loop
    vertex 249.3810841717354 121.94868764298516 45.42999999999997
    vertex 252.0117943821772 184.65219849298774 45.43
    vertex 249.3810841717354 85.08395800581425 45.43
  endloop
endfacet
facet normal 2.8612044101683134e-17 -2.2015104607278474e-16 -1.0
  outer loop
    vertex 249.3810841717354 85.08395800581425 45.43
    vertex 252.0117943821772 184.65219849298774 45.43
    vertex 252.01179438209323 85.51571751862694 45.43000000000001
  endloop
endfacet
facet normal 2.8612044101683134e-17 -2.2015104607278474e-16 -1.0
  outer loop
    vertex 252.01179438209323 85.51571751862694 45.43000000000001
    vertex 252.0117943821772 184.65219849298774 45.43
    vertex 254.44741974567026 86.59959093193926 45.430000000000014
  endloop
endfacet
facet normal 2.8612044101683134e-17 -2.2015104607278474e-16 -1.0
  outer loop
    vertex 254.44741974567026 86.59959093193926 45.430000000000014
    vertex 252.0117943821772 184.65219849298774 45.43
    vertex 254.447419745832 183.5683250796408 45.43
  endloop
endfacet
facet normal 2.8612044101683134e-17 -2.2015104607278474e-16 -1.0
  outer loop
    vertex 254.44741974567026 86.59959093193926 45.430000000000014
    vertex 254.447419745832 183.5683250796408 45.43
    vertex 256.52918119901875 88.26492025046379 45.43000000000003
  endloop
endfacet
facet normal 2.8612044101683134e-17 -2.2015104607278474e-16 -1.0
  outer loop
    vertex 256.52918119901875 88.26492025046379 45.43000000000003
    vertex 254.447419745832 183.5683250796408 45.43
    vertex 256.529181199247 181.90299576106312 45.43
  endloop
endfacet
facet normal 2.8612044101683134e-17 -2.2015104607278474e-16 -1.0
  outer loop
    vertex 256.52918119901875 88.26492025046379 45.43000000000003
    vertex 256.529181199247 181.90299576106312 45.43
    vertex 258.1213681608535 90.40314221423384 45.430000000000035
  endloop
endfacet
facet normal 2.8612044101683134e-17 -2.2015104607278474e-16 -1.0
  outer loop
    vertex 258.1213681608535 90.40314221423384 45.430000000000035
    vertex 256.529181199247 181.90299576106312 45.43
    vertex 258.1213681611325 179.7647737972248 45.43
  endloop
endfacet
facet normal 2.8612044101683134e-17 -2.2015104607278474e-16 -1.0
  outer loop
    vertex 258.1213681608535 90.40314221423384 45.430000000000035
    vertex 258.1213681611325 179.7647737972248 45.43
    vertex 259.1201855408397 92.87486556631484 45.430000000000035
  endloop
endfacet
facet normal 2.8612044101683134e-17 -2.2015104607278474e-16 -1.0
  outer loop
    vertex 259.1201855408397 92.87486556631484 45.430000000000035
    vertex 258.1213681611325 179.7647737972248 45.43
    vertex 259.12018554115065 177.2930504450649 45.43
  endloop
endfacet
facet normal 2.8612044101683134e-17 -2.2015104607278474e-16 -1.0
  outer loop
    vertex 259.1201855408397 92.87486556631484 45.430000000000035
    vertex 259.12018554115065 177.2930504450649 45.43
    vertex 259.46052016906185 95.51895800581426 45.430000000000035
  endloop
endfacet
facet normal 2.8612044101683134e-17 -2.2015104607278474e-16 -1.0
  outer loop
    vertex 259.46052016906185 95.51895800581426 45.430000000000035
    vertex 259.12018554115065 177.2930504450649 45.43
    vertex 259.4605201691708 147.8213497309635 45.429999999999964
  endloop
endfacet
facet normal 2.8612044101683134e-17 -2.2015104607278474e-16 -1.0
  outer loop
    vertex 259.4605201691708 147.8213497309635 45.429999999999964
    vertex 259.12018554115065 177.2930504450649 45.43
    vertex 259.46052016938364 174.64895800548103 45.43
  endloop
endfacet
facet normal 2.8612044101683134e-17 -2.2015104607278474e-16 -1.0
  outer loop
    vertex 259.4605201691708 147.8213497309635 45.429999999999964
    vertex 259.46052016917093 122.3465662803319 45.429999999999964
    vertex 259.46052016906185 95.51895800581426 45.430000000000035
  endloop
endfacet
facet normal 2.8612044101683134e-17 -2.2015104607278474e-16 -1.0
  outer loop
    vertex 259.46052016917093 122.3465662803319 45.429999999999964
    vertex 259.4605201691708 147.8213497309635 45.429999999999964
    vertex 261.8440851541936 146.54730770320646 45.429999999999964
  endloop
endfacet
facet normal 2.8612044101683134e-17 -2.2015104607278474e-16 -1.0
  outer loop
    vertex 259.46052016917093 122.3465662803319 45.429999999999964
    vertex 261.8440851541936 146.54730770320646 45.429999999999964
    vertex 261.8440851541937 123.62060830808896 45.429999999999964
  endloop
endfacet
facet normal 2.8612044101683134e-17 -2.2015104607278474e-16 -1.0
  outer loop
    vertex 261.8440851541937 123.62060830808896 45.429999999999964
    vertex 261.8440851541936 146.54730770320646 45.429999999999964
    vertex 263.9332973369313 144.83273557529284 45.429999999999964
  endloop
endfacet
facet normal 2.8612044101683134e-17 -2.2015104607278474e-16 -1.0
  outer loop
    vertex 261.8440851541937 123.62060830808896 45.429999999999964
    vertex 263.9332973369313 144.83273557529284 45.429999999999964
    vertex 263.93329733693133 125.33518043600264 45.429999999999964
  endloop
endfacet
facet normal 2.8612044101683134e-17 -2.2015104607278474e-16 -1.0
  outer loop
    vertex 263.93329733693133 125.33518043600264 45.429999999999964
    vertex 263.9332973369313 144.83273557529284 45.429999999999964
    vertex 265.6478694648449 142.74352339255518 45.429999999999964
  endloop
endfacet
facet normal 2.8612044101683134e-17 -2.2015104607278474e-16 -1.0
  outer loop
    vertex 263.93329733693133 125.33518043600264 45.429999999999964
    vertex 265.6478694648449 142.74352339255518 45.429999999999964
    vertex 265.64786946484503 127.42439261874033 45.429999999999964
  endloop
endfacet
facet normal 2.8612044101683134e-17 -2.2015104607278474e-16 -1.0
  outer loop
    vertex 265.64786946484503 127.42439261874033 45.429999999999964
    vertex 265.6478694648449 142.74352339255518 45.429999999999964
    vertex 266.921911492602 140.3599584075324 45.429999999999964
  endloop
endfacet
facet normal 2.8612044101683134e-17 -2.2015104607278474e-16 -1.0
  outer loop
    vertex 265.64786946484503 127.42439261874033 45.429999999999964
    vertex 266.921911492602 140.3599584075324 45.429999999999964
    vertex 266.9219114926021 129.8079576037631 45.429999999999964
  endloop
endfacet
facet normal 2.8612044101683134e-17 -2.2015104607278474e-16 -1.0
  outer loop
    vertex 266.9219114926021 129.8079576037631 45.429999999999964
    vertex 266.921911492602 140.3599584075324 45.429999999999964
    vertex 267.70646269956677 137.7736396858803 45.429999999999964
  endloop
endfacet
facet normal 2.8612044101683134e-17 -2.2015104607278474e-16 -1.0
  outer loop
    vertex 266.9219114926021 129.8079576037631 45.429999999999964
    vertex 267.70646269956677 137.7736396858803 45.429999999999964
    vertex 267.7064626995668 132.3942763254152 45.429999999999964
  endloop
endfacet
facet normal 2.8612044101683134e-17 -2.2015104607278474e-16 -1.0
  outer loop
    vertex 267.7064626995668 132.3942763254152 45.429999999999964
    vertex 267.70646269956677 137.7736396858803 45.429999999999964
    vertex 267.9713732228369 135.08395800564776 45.429999999999964
  endloop
endfacet
facet normal -3.800795494456483e-16 2.183301322034037e-16 1.0
  outer loop
    vertex 259.46052016917093 122.3465662803319 47.430000000000014
    vertex 259.4605201691708 147.8213497309635 47.430000000000014
    vertex 259.46052016906185 95.51895800581426 47.430000000000035
  endloop
endfacet
facet normal -3.800795494456483e-16 2.183301322034037e-16 1.0
  outer loop
    vertex 259.4605201691708 147.8213497309635 47.430000000000014
    vertex 259.46052016917093 122.3465662803319 47.430000000000014
    vertex 261.8440851541936 146.54730770320646 47.430000000000014
  endloop
endfacet
facet normal -3.800795494456483e-16 2.183301322034037e-16 1.0
  outer loop
    vertex 261.8440851541936 146.54730770320646 47.430000000000014
    vertex 259.46052016917093 122.3465662803319 47.430000000000014
    vertex 261.8440851541937 123.62060830808896 47.430000000000014
  endloop
endfacet
facet normal -3.800795494456483e-16 2.183301322034037e-16 1.0
  outer loop
    vertex 261.8440851541936 146.54730770320646 47.430000000000014
    vertex 261.8440851541937 123.62060830808896 47.430000000000014
    vertex 263.9332973369313 144.83273557529284 47.430000000000014
  endloop
endfacet
facet normal -3.800795494456483e-16 2.183301322034037e-16 1.0
  outer loop
    vertex 263.9332973369313 144.83273557529284 47.430000000000014
    vertex 261.8440851541937 123.62060830808896 47.430000000000014
    vertex 263.93329733693133 125.33518043600264 47.430000000000014
  endloop
endfacet
facet normal -3.800795494456483e-16 2.183301322034037e-16 1.0
  outer loop
    vertex 263.9332973369313 144.83273557529284 47.430000000000014
    vertex 263.93329733693133 125.33518043600264 47.430000000000014
    vertex 265.6478694648449 142.74352339255518 47.430000000000014
  endloop
endfacet
facet normal -3.800795494456483e-16 2.183301322034037e-16 1.0
  outer loop
    vertex 265.6478694648449 142.74352339255518 47.430000000000014
    vertex 263.93329733693133 125.33518043600264 47.430000000000014
    vertex 265.64786946484503 127.42439261874033 47.430000000000014
  endloop
endfacet
facet normal -3.800795494456483e-16 2.183301322034037e-16 1.0
  outer loop
    vertex 265.6478694648449 142.74352339255518 47.430000000000014
    vertex 265.64786946484503 127.42439261874033 47.430000000000014
    vertex 266.921911492602 140.3599584075324 47.430000000000014
  endloop
endfacet
facet normal -3.800795494456483e-16 2.183301322034037e-16 1.0
  outer loop
    vertex 266.921911492602 140.3599584075324 47.430000000000014
    vertex 265.64786946484503 127.42439261874033 47.430000000000014
    vertex 266.9219114926021 129.8079576037631 47.430000000000014
  endloop
endfacet
facet normal -3.800795494456483e-16 2.183301322034037e-16 1.0
  outer loop
    vertex 266.921911492602 140.3599584075324 47.430000000000014
    vertex 266.9219114926021 129.8079576037631 47.430000000000014
    vertex 267.70646269956677 137.7736396858803 47.430000000000014
  endloop
endfacet
facet normal -3.800795494456483e-16 2.183301322034037e-16 1.0
  outer loop
    vertex 267.70646269956677 137.7736396858803 47.430000000000014
    vertex 266.9219114926021 129.8079576037631 47.430000000000014
    vertex 267.7064626995668 132.3942763254152 47.430000000000014
  endloop
endfacet
facet normal -3.800795494456483e-16 2.183301322034037e-16 1.0
  outer loop
    vertex 267.70646269956677 137.7736396858803 47.430000000000014
    vertex 267.7064626995668 132.3942763254152 47.430000000000014
    vertex 267.9713732228369 135.08395800564776 47.430000000000014
  endloop
endfacet
facet normal -3.800795494456483e-16 2.183301322034037e-16 1.0
  outer loop
    vertex 252.01179438209323 85.51571751862694 47.430000000000014
    vertex 249.3810841717354 121.94868764298516 47.43000000000001
    vertex 249.3810841717354 85.08395800581425 47.43
  endloop
endfacet
facet normal -3.800795494456483e-16 2.183301322034037e-16 1.0
  outer loop
    vertex 249.3810841717354 121.94868764298516 47.43000000000001
    vertex 252.01179438209323 85.51571751862694 47.430000000000014
    vertex 249.3810841717354 148.21922836831016 47.43000000000001
  endloop
endfacet
facet normal -3.800795494456483e-16 2.183301322034037e-16 1.0
  outer loop
    vertex 249.3810841717354 148.21922836831016 47.43000000000001
    vertex 252.01179438209323 85.51571751862694 47.430000000000014
    vertex 249.3810841717354 185.08395800581422 47.43
  endloop
endfacet
facet normal -3.800795494456483e-16 2.183301322034037e-16 1.0
  outer loop
    vertex 249.3810841717354 185.08395800581422 47.43
    vertex 252.01179438209323 85.51571751862694 47.430000000000014
    vertex 252.0117943821772 184.65219849298774 47.43
  endloop
endfacet
facet normal -3.800795494456483e-16 2.183301322034037e-16 1.0
  outer loop
    vertex 252.0117943821772 184.65219849298774 47.43
    vertex 252.01179438209323 85.51571751862694 47.430000000000014
    vertex 254.44741974567026 86.59959093193926 47.430000000000014
  endloop
endfacet
facet normal -3.800795494456483e-16 2.183301322034037e-16 1.0
  outer loop
    vertex 252.0117943821772 184.65219849298774 47.43
    vertex 254.44741974567026 86.59959093193926 47.430000000000014
    vertex 254.447419745832 183.5683250796408 47.43
  endloop
endfacet
facet normal -3.800795494456483e-16 2.183301322034037e-16 1.0
  outer loop
    vertex 254.447419745832 183.5683250796408 47.43
    vertex 254.44741974567026 86.59959093193926 47.430000000000014
    vertex 256.52918119901875 88.26492025046379 47.43000000000003
  endloop
endfacet
facet normal -3.800795494456483e-16 2.183301322034037e-16 1.0
  outer loop
    vertex 254.447419745832 183.5683250796408 47.43
    vertex 256.52918119901875 88.26492025046379 47.43000000000003
    vertex 256.529181199247 181.90299576106312 47.43
  endloop
endfacet
facet normal -3.800795494456483e-16 2.183301322034037e-16 1.0
  outer loop
    vertex 256.529181199247 181.90299576106312 47.43
    vertex 256.52918119901875 88.26492025046379 47.43000000000003
    vertex 258.1213681608535 90.40314221423384 47.430000000000035
  endloop
endfacet
facet normal -3.800795494456483e-16 2.183301322034037e-16 1.0
  outer loop
    vertex 256.529181199247 181.90299576106312 47.43
    vertex 258.1213681608535 90.40314221423384 47.430000000000035
    vertex 258.1213681611325 179.7647737972248 47.43
  endloop
endfacet
facet normal -3.800795494456483e-16 2.183301322034037e-16 1.0
  outer loop
    vertex 258.1213681611325 179.7647737972248 47.43
    vertex 258.1213681608535 90.40314221423384 47.430000000000035
    vertex 259.1201855408397 92.87486556631484 47.430000000000035
  endloop
endfacet
facet normal -3.800795494456483e-16 2.183301322034037e-16 1.0
  outer loop
    vertex 258.1213681611325 179.7647737972248 47.43
    vertex 259.1201855408397 92.87486556631484 47.430000000000035
    vertex 259.12018554115065 177.2930504450649 47.43
  endloop
endfacet
facet normal -3.800795494456483e-16 2.183301322034037e-16 1.0
  outer loop
    vertex 259.12018554115065 177.2930504450649 47.43
    vertex 259.1201855408397 92.87486556631484 47.430000000000035
    vertex 259.46052016906185 95.51895800581426 47.430000000000035
  endloop
endfacet
facet normal -3.800795494456483e-16 2.183301322034037e-16 1.0
  outer loop
    vertex 259.12018554115065 177.2930504450649 47.43
    vertex 259.46052016906185 95.51895800581426 47.430000000000035
    vertex 259.4605201691708 147.8213497309635 47.430000000000014
  endloop
endfacet
facet normal -3.800795494456483e-16 2.183301322034037e-16 1.0
  outer loop
    vertex 259.12018554115065 177.2930504450649 47.43
    vertex 259.4605201691708 147.8213497309635 47.430000000000014
    vertex 259.46052016938364 174.64895800548103 47.43
  endloop
endfacet
facet normal -3.800795494456483e-16 2.183301322034037e-16 1.0
  outer loop
    vertex 240.2384398075324 132.2258923396417 47.430000000000014
    vertex 240.23843980753244 137.94202367165363 47.430000000000014
    vertex 239.9405201692227 135.08395800564764 47.430000000000014
  endloop
endfacet
facet normal -3.800795494456483e-16 2.183301322034037e-16 1.0
  outer loop
    vertex 240.23843980753244 137.94202367165363 47.430000000000014
    vertex 240.2384398075324 132.2258923396417 47.430000000000014
    vertex 241.11938959454523 129.4907099079098 47.430000000000014
  endloop
endfacet
facet normal -3.800795494456483e-16 2.183301322034037e-16 1.0
  outer loop
    vertex 240.23843980753244 137.94202367165363 47.430000000000014
    vertex 241.11938959454523 129.4907099079098 47.430000000000014
    vertex 241.11938959454523 140.67720610338552 47.430000000000014
  endloop
endfacet
facet normal -3.800795494456483e-16 2.183301322034037e-16 1.0
  outer loop
    vertex 241.11938959454523 140.67720610338552 47.430000000000014
    vertex 241.11938959454523 129.4907099079098 47.430000000000014
    vertex 242.54549287810832 126.99601054993032 47.430000000000014
  endloop
endfacet
facet normal -3.800795494456483e-16 2.183301322034037e-16 1.0
  outer loop
    vertex 241.11938959454523 140.67720610338552 47.430000000000014
    vertex 242.54549287810832 126.99601054993032 47.430000000000014
    vertex 242.54549287810832 143.171905461365 47.430000000000014
  endloop
endfacet
facet normal -3.800795494456483e-16 2.183301322034037e-16 1.0
  outer loop
    vertex 242.54549287810832 143.171905461365 47.430000000000014
    vertex 242.54549287810832 126.99601054993032 47.430000000000014
    vertex 244.45543399778128 124.84905447644513 47.43000000000001
  endloop
endfacet
facet normal -3.800795494456483e-16 2.183301322034037e-16 1.0
  outer loop
    vertex 242.54549287810832 143.171905461365 47.430000000000014
    vertex 244.45543399778128 124.84905447644513 47.43000000000001
    vertex 244.45543399778134 145.31886153485019 47.430000000000014
  endloop
endfacet
facet normal -3.800795494456483e-16 2.183301322034037e-16 1.0
  outer loop
    vertex 244.45543399778134 145.31886153485019 47.430000000000014
    vertex 244.45543399778128 124.84905447644513 47.43000000000001
    vertex 246.76709456669508 123.14215059039238 47.43000000000001
  endloop
endfacet
facet normal -3.800795494456483e-16 2.183301322034037e-16 1.0
  outer loop
    vertex 244.45543399778134 145.31886153485019 47.430000000000014
    vertex 246.76709456669508 123.14215059039238 47.43000000000001
    vertex 246.7670945666951 147.02576542090293 47.43000000000001
  endloop
endfacet
facet normal -3.800795494456483e-16 2.183301322034037e-16 1.0
  outer loop
    vertex 246.7670945666951 147.02576542090293 47.43000000000001
    vertex 246.76709456669508 123.14215059039238 47.43000000000001
    vertex 249.3810841717354 121.94868764298516 47.43000000000001
  endloop
endfacet
facet normal -3.800795494456483e-16 2.183301322034037e-16 1.0
  outer loop
    vertex 246.7670945666951 147.02576542090293 47.43000000000001
    vertex 249.3810841717354 121.94868764298516 47.43000000000001
    vertex 249.3810841717354 148.21922836831016 47.43000000000001
  endloop
endfacet
facet normal 0.8020621551252448 -0.5972405707215878 1.3964440661554177e-15
  outer loop
    vertex 258.1213681608535 90.40314221423384 45.430000000000035
    vertex 256.52918119901875 88.26492025046379 47.43000000000003
    vertex 256.52918119901875 88.26492025046379 45.43000000000003
  endloop
endfacet
facet normal 0.8020621551252448 -0.5972405707215878 1.3964440661554177e-15
  outer loop
    vertex 256.52918119901875 88.26492025046379 47.43000000000003
    vertex 258.1213681608535 90.40314221423384 45.430000000000035
    vertex 258.1213681608535 90.40314221423384 47.430000000000035
  endloop
endfacet
facet normal 0.9271608805046769 -0.37466345119559274 1.5415174330137468e-15
  outer loop
    vertex 259.1201855408397 92.87486556631484 45.430000000000035
    vertex 258.1213681608535 90.40314221423384 47.430000000000035
    vertex 258.1213681608535 90.40314221423384 45.430000000000035
  endloop
endfacet
facet normal 0.9271608805046769 -0.37466345119559274 1.5415174330137468e-15
  outer loop
    vertex 258.1213681608535 90.40314221423384 47.430000000000035
    vertex 259.1201855408397 92.87486556631484 45.430000000000035
    vertex 259.1201855408397 92.87486556631484 47.430000000000035
  endloop
endfacet
facet normal 1.0 -7.934871705905134e-12 9.656340337135988e-28
  outer loop
    vertex 259.46052016938364 174.64895800548103 45.43
    vertex 259.4605201691708 147.8213497309635 47.430000000000014
    vertex 259.4605201691708 147.8213497309635 45.429999999999964
  endloop
endfacet
facet normal 1.0 -7.934871705905134e-12 9.656340337135988e-28
  outer loop
    vertex 259.4605201691708 147.8213497309635 47.430000000000014
    vertex 259.46052016938364 174.64895800548103 45.43
    vertex 259.46052016938364 174.64895800548103 47.43
  endloop
endfacet
facet normal 0.6246767851238282 0.7808834190372842 8.005652757135911e-16
  outer loop
    vertex 254.447419745832 183.5683250796408 47.43
    vertex 256.529181199247 181.90299576106312 45.43
    vertex 254.447419745832 183.5683250796408 45.43
  endloop
endfacet
facet normal 0.6246767851238282 0.7808834190372842 8.005652757135911e-16
  outer loop
    vertex 256.529181199247 181.90299576106312 45.43
    vertex 254.447419745832 183.5683250796408 47.43
    vertex 256.529181199247 181.90299576106312 47.43
  endloop
endfacet
facet normal 0.4065685698183799 -0.9136202701537642 8.48585593604695e-16
  outer loop
    vertex 254.44741974567026 86.59959093193926 45.430000000000014
    vertex 252.01179438209323 85.51571751862694 47.430000000000014
    vertex 252.01179438209323 85.51571751862694 45.43000000000001
  endloop
endfacet
facet normal 0.4065685698183799 -0.9136202701537642 8.48585593604695e-16
  outer loop
    vertex 252.01179438209323 85.51571751862694 47.430000000000014
    vertex 254.44741974567026 86.59959093193926 45.430000000000014
    vertex 254.44741974567026 86.59959093193926 47.430000000000014
  endloop
endfacet
facet normal -1.0 0.0 0.0
  outer loop
    vertex 249.3810841717354 121.94868764298516 47.43000000000001
    vertex 249.3810841717354 85.08395800581425 45.43
    vertex 249.3810841717354 85.08395800581425 47.43
  endloop
endfacet
facet normal -1.0 0.0 0.0
  outer loop
    vertex 249.3810841717354 85.08395800581425 45.43
    vertex 249.3810841717354 121.94868764298516 47.43000000000001
    vertex 249.3810841717354 121.94868764298516 45.42999999999997
  endloop
endfacet
facet normal 0.8020621551252417 0.5972405707215918 1.1212816651806159e-15
  outer loop
    vertex 256.529181199247 181.90299576106312 45.43
    vertex 258.1213681611325 179.7647737972248 47.43
    vertex 258.1213681611325 179.7647737972248 45.43
  endloop
endfacet
facet normal 0.8020621551252417 0.5972405707215918 1.1212816651806159e-15
  outer loop
    vertex 258.1213681611325 179.7647737972248 47.43
    vertex 256.529181199247 181.90299576106312 45.43
    vertex 256.529181199247 181.90299576106312 47.43
  endloop
endfacet
facet normal 0.1619560416130945 -0.9867979735411995 4.815155270453196e-16
  outer loop
    vertex 252.01179438209323 85.51571751862694 45.43000000000001
    vertex 249.3810841717354 85.08395800581425 47.43
    vertex 249.3810841717354 85.08395800581425 45.43
  endloop
endfacet
facet normal 0.1619560416130945 -0.9867979735411995 4.815155270453196e-16
  outer loop
    vertex 249.3810841717354 85.08395800581425 47.43
    vertex 252.01179438209323 85.51571751862694 45.43000000000001
    vertex 252.01179438209323 85.51571751862694 47.430000000000014
  endloop
endfacet
facet normal 0.9918177421749358 0.12766192191492673 1.5272821001222228e-15
  outer loop
    vertex 259.12018554115065 177.2930504450649 45.43
    vertex 259.46052016938364 174.64895800548103 47.43
    vertex 259.46052016938364 174.64895800548103 45.43
  endloop
endfacet
facet normal 0.9918177421749358 0.12766192191492673 1.5272821001222228e-15
  outer loop
    vertex 259.46052016938364 174.64895800548103 47.43
    vertex 259.12018554115065 177.2930504450649 45.43
    vertex 259.12018554115065 177.2930504450649 47.43
  endloop
endfacet
facet normal 0.6246767851238291 -0.7808834190372833 1.1603361402482984e-15
  outer loop
    vertex 256.52918119901875 88.26492025046379 45.43000000000003
    vertex 254.44741974567026 86.59959093193926 47.430000000000014
    vertex 254.44741974567026 86.59959093193926 45.430000000000014
  endloop
endfacet
facet normal 0.6246767851238291 -0.7808834190372833 1.1603361402482984e-15
  outer loop
    vertex 254.44741974567026 86.59959093193926 47.430000000000014
    vertex 256.52918119901875 88.26492025046379 45.43000000000003
    vertex 256.52918119901875 88.26492025046379 47.43000000000003
  endloop
endfacet
facet normal 0.4065685698183807 0.9136202701537639 4.276598235904177e-16
  outer loop
    vertex 252.0117943821772 184.65219849298774 47.43
    vertex 254.447419745832 183.5683250796408 45.43
    vertex 252.0117943821772 184.65219849298774 45.43
  endloop
endfacet
facet normal 0.4065685698183807 0.9136202701537639 4.276598235904177e-16
  outer loop
    vertex 254.447419745832 183.5683250796408 45.43
    vertex 252.0117943821772 184.65219849298774 47.43
    vertex 254.447419745832 183.5683250796408 47.43
  endloop
endfacet
facet normal 0.9271608805046762 0.3746634511955947 1.368901405499196e-15
  outer loop
    vertex 258.1213681611325 179.7647737972248 45.43
    vertex 259.12018554115065 177.2930504450649 47.43
    vertex 259.12018554115065 177.2930504450649 45.43
  endloop
endfacet
facet normal 0.9271608805046762 0.3746634511955947 1.368901405499196e-15
  outer loop
    vertex 259.12018554115065 177.2930504450649 47.43
    vertex 258.1213681611325 179.7647737972248 45.43
    vertex 258.1213681611325 179.7647737972248 47.43
  endloop
endfacet
facet normal 0.1619560416130997 0.9867979735411986 2.687511414002814e-17
  outer loop
    vertex 249.3810841717354 185.08395800581422 47.43
    vertex 252.0117943821772 184.65219849298774 45.43
    vertex 249.3810841717354 185.08395800581422 45.43
  endloop
endfacet
facet normal 0.1619560416130997 0.9867979735411986 2.687511414002814e-17
  outer loop
    vertex 252.0117943821772 184.65219849298774 45.43
    vertex 249.3810841717354 185.08395800581422 47.43
    vertex 252.0117943821772 184.65219849298774 47.43
  endloop
endfacet
facet normal 0.9918177421749361 -0.12766192191492437 1.5860988695602511e-15
  outer loop
    vertex 259.46052016906185 95.51895800581426 45.430000000000035
    vertex 259.1201855408397 92.87486556631484 47.430000000000035
    vertex 259.1201855408397 92.87486556631484 45.430000000000035
  endloop
endfacet
facet normal 0.9918177421749361 -0.12766192191492437 1.5860988695602511e-15
  outer loop
    vertex 259.1201855408397 92.87486556631484 47.430000000000035
    vertex 259.46052016906185 95.51895800581426 45.430000000000035
    vertex 259.46052016906185 95.51895800581426 47.430000000000035
  endloop
endfacet
facet normal -0.41532686883850856 0.909672244284061 -2.642213503582928e-29
  outer loop
    vertex 246.7670945666951 147.02576542090293 47.43000000000001
    vertex 249.3810841717354 148.21922836831016 45.42999999999997
    vertex 246.7670945666951 147.02576542090293 45.42999999999997
  endloop
endfacet
facet normal -0.41532686883850856 0.909672244284061 -2.642213503582928e-29
  outer loop
    vertex 249.3810841717354 148.21922836831016 45.42999999999997
    vertex 246.7670945666951 147.02576542090293 47.43000000000001
    vertex 249.3810841717354 148.21922836831016 47.43000000000001
  endloop
endfacet
facet normal -0.5940050740097864 0.8044612930717229 4.776851631597229e-16
  outer loop
    vertex 244.45543399778134 145.31886153485019 47.430000000000014
    vertex 246.7670945666951 147.02576542090293 45.42999999999997
    vertex 244.45543399778134 145.31886153485019 45.42999999999997
  endloop
endfacet
facet normal -0.5940050740097864 0.8044612930717229 4.776851631597229e-16
  outer loop
    vertex 246.7670945666951 147.02576542090293 45.42999999999997
    vertex 244.45543399778134 145.31886153485019 47.430000000000014
    vertex 246.7670945666951 147.02576542090293 47.43000000000001
  endloop
endfacet
facet normal -0.747143885339378 0.6646623312630092 5.817400666266645e-16
  outer loop
    vertex 244.45543399778134 145.31886153485019 47.430000000000014
    vertex 242.54549287810832 143.171905461365 45.42999999999997
    vertex 242.54549287810832 143.171905461365 47.430000000000014
  endloop
endfacet
facet normal -0.747143885339378 0.6646623312630092 5.817400666266645e-16
  outer loop
    vertex 242.54549287810832 143.171905461365 45.42999999999997
    vertex 244.45543399778134 145.31886153485019 47.430000000000014
    vertex 244.45543399778134 145.31886153485019 45.42999999999997
  endloop
endfacet
facet normal -0.8681590620756184 0.49628604950772365 6.607829132524548e-16
  outer loop
    vertex 242.54549287810832 143.171905461365 47.430000000000014
    vertex 241.11938959454523 140.67720610338552 45.42999999999997
    vertex 241.11938959454523 140.67720610338552 47.430000000000014
  endloop
endfacet
facet normal -0.8681590620756184 0.49628604950772365 6.607829132524548e-16
  outer loop
    vertex 241.11938959454523 140.67720610338552 45.42999999999997
    vertex 242.54549287810832 143.171905461365 47.430000000000014
    vertex 242.54549287810832 143.171905461365 45.42999999999997
  endloop
endfacet
facet normal -0.9518475270147568 0.30657182733560445 7.11415236460503e-16
  outer loop
    vertex 241.11938959454523 140.67720610338552 47.430000000000014
    vertex 240.23843980753244 137.94202367165363 45.42999999999997
    vertex 240.23843980753244 137.94202367165363 47.430000000000014
  endloop
endfacet
facet normal -0.9518475270147568 0.30657182733560445 7.11415236460503e-16
  outer loop
    vertex 240.23843980753244 137.94202367165363 45.42999999999997
    vertex 241.11938959454523 140.67720610338552 47.430000000000014
    vertex 241.11938959454523 140.67720610338552 45.42999999999997
  endloop
endfacet
facet normal -0.9946110740814423 0.10367647425795222 7.314600870964816e-16
  outer loop
    vertex 240.23843980753244 137.94202367165363 47.430000000000014
    vertex 239.9405201692227 135.08395800564764 45.42999999999997
    vertex 239.9405201692227 135.08395800564764 47.430000000000014
  endloop
endfacet
facet normal -0.9946110740814423 0.10367647425795222 7.314600870964816e-16
  outer loop
    vertex 239.9405201692227 135.08395800564764 45.42999999999997
    vertex 240.23843980753244 137.94202367165363 47.430000000000014
    vertex 240.23843980753244 137.94202367165363 45.42999999999997
  endloop
endfacet
facet normal -0.994611074081444 -0.10367647425793669 7.200556318911399e-16
  outer loop
    vertex 239.9405201692227 135.08395800564764 47.430000000000014
    vertex 240.2384398075324 132.2258923396417 45.42999999999997
    vertex 240.2384398075324 132.2258923396417 47.430000000000014
  endloop
endfacet
facet normal -0.994611074081444 -0.10367647425793669 7.200556318911399e-16
  outer loop
    vertex 240.2384398075324 132.2258923396417 45.42999999999997
    vertex 239.9405201692227 135.08395800564764 47.430000000000014
    vertex 239.9405201692227 135.08395800564764 45.42999999999997
  endloop
endfacet
facet normal -0.9518475270147516 -0.306571827335621 6.776922081930597e-16
  outer loop
    vertex 240.2384398075324 132.2258923396417 47.430000000000014
    vertex 241.11938959454523 129.4907099079098 45.42999999999997
    vertex 241.11938959454523 129.4907099079098 47.430000000000014
  endloop
endfacet
facet normal -0.9518475270147516 -0.306571827335621 6.776922081930597e-16
  outer loop
    vertex 241.11938959454523 129.4907099079098 45.42999999999997
    vertex 240.2384398075324 132.2258923396417 47.430000000000014
    vertex 240.2384398075324 132.2258923396417 45.42999999999997
  endloop
endfacet
facet normal -0.8681590620756203 -0.49628604950772026 6.061912417941287e-16
  outer loop
    vertex 241.11938959454523 129.4907099079098 47.430000000000014
    vertex 242.54549287810832 126.99601054993032 45.42999999999997
    vertex 242.54549287810832 126.99601054993032 47.430000000000014
  endloop
endfacet
facet normal -0.8681590620756203 -0.49628604950772026 6.061912417941287e-16
  outer loop
    vertex 242.54549287810832 126.99601054993032 45.42999999999997
    vertex 241.11938959454523 129.4907099079098 47.430000000000014
    vertex 241.11938959454523 129.4907099079098 45.42999999999997
  endloop
endfacet
facet normal -0.7471438853393825 -0.6646623312630044 5.086269342808603e-16
  outer loop
    vertex 242.54549287810832 126.99601054993032 47.430000000000014
    vertex 244.45543399778128 124.84905447644513 45.42999999999997
    vertex 244.45543399778128 124.84905447644513 47.43000000000001
  endloop
endfacet
facet normal -0.7471438853393825 -0.6646623312630044 5.086269342808603e-16
  outer loop
    vertex 244.45543399778128 124.84905447644513 45.42999999999997
    vertex 242.54549287810832 126.99601054993032 47.430000000000014
    vertex 242.54549287810832 126.99601054993032 45.42999999999997
  endloop
endfacet
facet normal -0.5940050740097915 -0.8044612930717191 3.891940869832457e-16
  outer loop
    vertex 246.76709456669508 123.14215059039238 47.43000000000001
    vertex 244.45543399778128 124.84905447644513 45.42999999999997
    vertex 246.76709456669508 123.14215059039238 45.42999999999997
  endloop
endfacet
facet normal -0.5940050740097915 -0.8044612930717191 3.891940869832457e-16
  outer loop
    vertex 244.45543399778128 124.84905447644513 45.42999999999997
    vertex 246.76709456669508 123.14215059039238 47.43000000000001
    vertex 244.45543399778128 124.84905447644513 47.43000000000001
  endloop
endfacet
facet normal -0.4153268688385026 -0.9096722442840638 0.0
  outer loop
    vertex 249.3810841717354 121.94868764298516 47.43000000000001
    vertex 246.76709456669508 123.14215059039238 45.42999999999997
    vertex 249.3810841717354 121.94868764298516 45.42999999999997
  endloop
endfacet
facet normal -0.4153268688385026 -0.9096722442840638 0.0
  outer loop
    vertex 246.76709456669508 123.14215059039238 45.42999999999997
    vertex 249.3810841717354 121.94868764298516 47.43000000000001
    vertex 246.76709456669508 123.14215059039238 47.43000000000001
  endloop
endfacet
facet normal -1.0 0.0 0.0
  outer loop
    vertex 249.3810841717354 185.08395800581422 47.43
    vertex 249.3810841717354 148.21922836831016 45.42999999999997
    vertex 249.3810841717354 148.21922836831016 47.43000000000001
  endloop
endfacet
facet normal -1.0 0.0 0.0
  outer loop
    vertex 249.3810841717354 148.21922836831016 45.42999999999997
    vertex 249.3810841717354 185.08395800581422 47.43
    vertex 249.3810841717354 185.08395800581422 45.43
  endloop
endfacet
facet normal 0.47139673682599653 -0.8819212643483556 0.0
  outer loop
    vertex 261.8440851541937 123.62060830808896 47.430000000000014
    vertex 259.46052016917093 122.3465662803319 45.429999999999964
    vertex 261.8440851541937 123.62060830808896 45.429999999999964
  endloop
endfacet
facet normal 0.47139673682599653 -0.8819212643483556 0.0
  outer loop
    vertex 259.46052016917093 122.3465662803319 45.429999999999964
    vertex 261.8440851541937 123.62060830808896 47.430000000000014
    vertex 259.46052016917093 122.3465662803319 47.430000000000014
  endloop
endfacet
facet normal 0.6343932841636551 -0.7730104533627291 0.0
  outer loop
    vertex 263.93329733693133 125.33518043600264 47.430000000000014
    vertex 261.8440851541937 123.62060830808896 45.429999999999964
    vertex 263.93329733693133 125.33518043600264 45.429999999999964
  endloop
endfacet
facet normal 0.6343932841636551 -0.7730104533627291 0.0
  outer loop
    vertex 261.8440851541937 123.62060830808896 45.429999999999964
    vertex 263.93329733693133 125.33518043600264 47.430000000000014
    vertex 261.8440851541937 123.62060830808896 47.430000000000014
  endloop
endfacet
facet normal 0.7730104533627358 -0.6343932841636468 0.0
  outer loop
    vertex 265.64786946484503 127.42439261874033 45.429999999999964
    vertex 263.93329733693133 125.33518043600264 47.430000000000014
    vertex 263.93329733693133 125.33518043600264 45.429999999999964
  endloop
endfacet
facet normal 0.7730104533627358 -0.6343932841636468 0.0
  outer loop
    vertex 263.93329733693133 125.33518043600264 47.430000000000014
    vertex 265.64786946484503 127.42439261874033 45.429999999999964
    vertex 265.64786946484503 127.42439261874033 47.430000000000014
  endloop
endfacet
facet normal 0.8819212643483572 -0.47139673682599353 0.0
  outer loop
    vertex 266.9219114926021 129.8079576037631 45.429999999999964
    vertex 265.64786946484503 127.42439261874033 47.430000000000014
    vertex 265.64786946484503 127.42439261874033 45.429999999999964
  endloop
endfacet
facet normal 0.8819212643483572 -0.47139673682599353 0.0
  outer loop
    vertex 265.64786946484503 127.42439261874033 47.430000000000014
    vertex 266.9219114926021 129.8079576037631 45.429999999999964
    vertex 266.9219114926021 129.8079576037631 47.430000000000014
  endloop
endfacet
facet normal 0.9569403357322084 -0.2902846772544645 0.0
  outer loop
    vertex 267.7064626995668 132.3942763254152 45.429999999999964
    vertex 266.9219114926021 129.8079576037631 47.430000000000014
    vertex 266.9219114926021 129.8079576037631 45.429999999999964
  endloop
endfacet
facet normal 0.9569403357322084 -0.2902846772544645 0.0
  outer loop
    vertex 266.9219114926021 129.8079576037631 47.430000000000014
    vertex 267.7064626995668 132.3942763254152 45.429999999999964
    vertex 267.7064626995668 132.3942763254152 47.430000000000014
  endloop
endfacet
facet normal 0.9951847266721983 -0.09801714032954652 0.0
  outer loop
    vertex 267.9713732228369 135.08395800564776 45.429999999999964
    vertex 267.7064626995668 132.3942763254152 47.430000000000014
    vertex 267.7064626995668 132.3942763254152 45.429999999999964
  endloop
endfacet
facet normal 0.9951847266721983 -0.09801714032954652 0.0
  outer loop
    vertex 267.7064626995668 132.3942763254152 47.430000000000014
    vertex 267.9713732228369 135.08395800564776 45.429999999999964
    vertex 267.9713732228369 135.08395800564776 47.430000000000014
  endloop
endfacet
facet normal 0.9951847266721967 0.09801714032956307 0.0
  outer loop
    vertex 267.70646269956677 137.7736396858803 45.429999999999964
    vertex 267.9713732228369 135.08395800564776 47.430000000000014
    vertex 267.9713732228369 135.08395800564776 45.429999999999964
  endloop
endfacet
facet normal 0.9951847266721967 0.09801714032956307 0.0
  outer loop
    vertex 267.9713732228369 135.08395800564776 47.430000000000014
    vertex 267.70646269956677 137.7736396858803 45.429999999999964
    vertex 267.70646269956677 137.7736396858803 47.430000000000014
  endloop
endfacet
facet normal 0.9569403357322084 0.2902846772544645 0.0
  outer loop
    vertex 266.921911492602 140.3599584075324 45.429999999999964
    vertex 267.70646269956677 137.7736396858803 47.430000000000014
    vertex 267.70646269956677 137.7736396858803 45.429999999999964
  endloop
endfacet
facet normal 0.9569403357322084 0.2902846772544645 0.0
  outer loop
    vertex 267.70646269956677 137.7736396858803 47.430000000000014
    vertex 266.921911492602 140.3599584075324 45.429999999999964
    vertex 266.921911492602 140.3599584075324 47.430000000000014
  endloop
endfacet
facet normal 0.8819212643483504 0.4713967368260066 0.0
  outer loop
    vertex 265.6478694648449 142.74352339255518 45.429999999999964
    vertex 266.921911492602 140.3599584075324 47.430000000000014
    vertex 266.921911492602 140.3599584075324 45.429999999999964
  endloop
endfacet
facet normal 0.8819212643483504 0.4713967368260066 0.0
  outer loop
    vertex 266.921911492602 140.3599584075324 47.430000000000014
    vertex 265.6478694648449 142.74352339255518 45.429999999999964
    vertex 265.6478694648449 142.74352339255518 47.430000000000014
  endloop
endfacet
facet normal 0.7730104533627326 0.634393284163651 0.0
  outer loop
    vertex 263.9332973369313 144.83273557529284 45.429999999999964
    vertex 265.6478694648449 142.74352339255518 47.430000000000014
    vertex 265.6478694648449 142.74352339255518 45.429999999999964
  endloop
endfacet
facet normal 0.7730104533627326 0.634393284163651 0.0
  outer loop
    vertex 265.6478694648449 142.74352339255518 47.430000000000014
    vertex 263.9332973369313 144.83273557529284 45.429999999999964
    vertex 263.9332973369313 144.83273557529284 47.430000000000014
  endloop
endfacet
facet normal 0.6343932841636368 0.773010453362744 0.0
  outer loop
    vertex 261.8440851541936 146.54730770320646 47.430000000000014
    vertex 263.9332973369313 144.83273557529284 45.429999999999964
    vertex 261.8440851541936 146.54730770320646 45.429999999999964
  endloop
endfacet
facet normal 0.6343932841636368 0.773010453362744 0.0
  outer loop
    vertex 263.9332973369313 144.83273557529284 45.429999999999964
    vertex 261.8440851541936 146.54730770320646 47.430000000000014
    vertex 263.9332973369313 144.83273557529284 47.430000000000014
  endloop
endfacet
facet normal 0.47139673682599004 0.8819212643483592 0.0
  outer loop
    vertex 259.4605201691708 147.8213497309635 47.430000000000014
    vertex 261.8440851541936 146.54730770320646 45.429999999999964
    vertex 259.4605201691708 147.8213497309635 45.429999999999964
  endloop
endfacet
facet normal 0.47139673682599004 0.8819212643483592 0.0
  outer loop
    vertex 261.8440851541936 146.54730770320646 45.429999999999964
    vertex 259.4605201691708 147.8213497309635 47.430000000000014
    vertex 261.8440851541936 146.54730770320646 47.430000000000014
  endloop
endfacet
facet normal 1.0 -4.066663795014526e-12 7.633464919249288e-28
  outer loop
    vertex 259.46052016917093 122.3465662803319 45.429999999999964
    vertex 259.46052016906185 95.51895800581426 47.430000000000035
    vertex 259.46052016906185 95.51895800581426 45.430000000000035
  endloop
endfacet
facet normal 1.0 -4.066663795014526e-12 7.633464919249288e-28
  outer loop
    vertex 259.46052016906185 95.51895800581426 47.430000000000035
    vertex 259.46052016917093 122.3465662803319 45.429999999999964
    vertex 259.46052016917093 122.3465662803319 47.430000000000014
  endloop
endfacet
endsolid arduino_car_PRINTED.skpb
