solid arduino_car_PRINTED.skpb
facet normal 0.9238795325112762 0.3826834323651151 0.0
  outer loop
    vertex 265.17097739812107 137.08395800564764 73.06000000001197
    vertex 265.5705790881396 136.11923418605772 78.06000000001198
    vertex 265.5705790881396 136.11923418605772 73.06000000001197
  endloop
endfacet
facet normal 0.9238795325112762 0.3826834323651151 0.0
  outer loop
    vertex 265.5705790881396 136.11923418605772 78.06000000001198
    vertex 265.17097739812107 137.08395800564764 73.06000000001197
    vertex 265.17097739812107 137.08395800564764 78.06000000001198
  endloop
endfacet
facet normal 0.6087614290087128 0.7933533402912413 0.0
  outer loop
    vertex 263.70687578298333 138.54805962078538 78.06000000001198
    vertex 264.53530290772954 137.91238513039383 73.06000000001197
    vertex 263.70687578298333 138.54805962078538 73.06000000001197
  endloop
endfacet
facet normal 0.6087614290087128 0.7933533402912413 0.0
  outer loop
    vertex 264.53530290772954 137.91238513039383 73.06000000001197
    vertex 263.70687578298333 138.54805962078538 78.06000000001198
    vertex 264.53530290772954 137.91238513039383 78.06000000001198
  endloop
endfacet
facet normal 0.3826834323651044 0.9238795325112807 0.0
  outer loop
    vertex 262.74215196339344 138.9476613108039 78.06000000001198
    vertex 263.70687578298333 138.54805962078538 73.06000000001197
    vertex 262.74215196339344 138.9476613108039 73.06000000001197
  endloop
endfacet
facet normal 0.3826834323651044 0.9238795325112807 0.0
  outer loop
    vertex 263.70687578298333 138.54805962078538 73.06000000001197
    vertex 262.74215196339344 138.9476613108039 78.06000000001198
    vertex 263.70687578298333 138.54805962078538 78.06000000001198
  endloop
endfacet
facet normal 0.7933533402912437 0.6087614290087096 0.0
  outer loop
    vertex 264.53530290772954 137.91238513039383 73.06000000001197
    vertex 265.17097739812107 137.08395800564764 78.06000000001198
    vertex 265.17097739812107 137.08395800564764 73.06000000001197
  endloop
endfacet
facet normal 0.7933533402912437 0.6087614290087096 0.0
  outer loop
    vertex 265.17097739812107 137.08395800564764 78.06000000001198
    vertex 264.53530290772954 137.91238513039383 73.06000000001197
    vertex 264.53530290772954 137.91238513039383 78.06000000001198
  endloop
endfacet
facet normal 0.0 0.0 -1.0
  outer loop
    vertex 257.84317247782707 136.11923418605775 73.06000000001197
    vertex 257.84317247782707 134.04868182523757 73.06000000001197
    vertex 257.70687578298333 135.08395800564764 73.06000000001197
  endloop
endfacet
facet normal 0.0 0.0 -1.0
  outer loop
    vertex 257.84317247782707 134.04868182523757 73.06000000001197
    vertex 257.84317247782707 136.11923418605775 73.06000000001197
    vertex 258.2427741678456 137.08395800564764 73.06000000001197
  endloop
endfacet
facet normal 0.0 0.0 -1.0
  outer loop
    vertex 257.84317247782707 134.04868182523757 73.06000000001197
    vertex 258.2427741678456 137.08395800564764 73.06000000001197
    vertex 258.2427741678456 133.08395800564767 73.06000000001197
  endloop
endfacet
facet normal 0.0 0.0 -1.0
  outer loop
    vertex 258.2427741678456 133.08395800564767 73.06000000001197
    vertex 258.2427741678456 137.08395800564764 73.06000000001197
    vertex 258.8784486582371 137.91238513039383 73.06000000001197
  endloop
endfacet
facet normal 0.0 0.0 -1.0
  outer loop
    vertex 258.2427741678456 133.08395800564767 73.06000000001197
    vertex 258.8784486582371 137.91238513039383 73.06000000001197
    vertex 258.8784486582371 132.2555308809015 73.06000000001197
  endloop
endfacet
facet normal 0.0 0.0 -1.0
  outer loop
    vertex 258.8784486582371 132.2555308809015 73.06000000001197
    vertex 258.8784486582371 137.91238513039383 73.06000000001197
    vertex 258.9042870948093 135.08395800564764 73.06000000001197
  endloop
endfacet
facet normal 0.0 0.0 -1.0
  outer loop
    vertex 258.9042870948093 135.08395800564764 73.06000000001197
    vertex 258.8784486582371 137.91238513039383 73.06000000001197
    vertex 258.9997829886104 135.80932133373597 73.06000000001197
  endloop
endfacet
facet normal 0.0 0.0 -1.0
  outer loop
    vertex 258.9997829886104 135.80932133373597 73.06000000001197
    vertex 258.8784486582371 137.91238513039383 73.06000000001197
    vertex 259.70687578298333 138.5480596207854 73.06000000001197
  endloop
endfacet
facet normal 0.0 0.0 -1.0
  outer loop
    vertex 258.9997829886104 135.80932133373597 73.06000000001197
    vertex 259.70687578298333 138.5480596207854 73.06000000001197
    vertex 259.2797627826657 136.48525234973468 73.06000000001197
  endloop
endfacet
facet normal 0.0 0.0 -1.0
  outer loop
    vertex 259.2797627826657 136.48525234973468 73.06000000001197
    vertex 259.70687578298333 138.5480596207854 73.06000000001197
    vertex 259.6624330915055 136.98395800564765 73.06000000001197
  endloop
endfacet
facet normal 0.0 0.0 -1.0
  outer loop
    vertex 259.6624330915055 136.98395800564765 73.06000000001197
    vertex 259.70687578298333 138.5480596207854 73.06000000001197
    vertex 263.7513184744612 136.98395800564765 73.06000000001197
  endloop
endfacet
facet normal 0.0 0.0 -1.0
  outer loop
    vertex 263.7513184744612 136.98395800564765 73.06000000001197
    vertex 259.70687578298333 138.5480596207854 73.06000000001197
    vertex 260.6715996025732 138.9476613108039 73.06000000001197
  endloop
endfacet
facet normal 0.0 0.0 -1.0
  outer loop
    vertex 263.7513184744612 136.98395800564765 73.06000000001197
    vertex 260.6715996025732 138.9476613108039 73.06000000001197
    vertex 261.70687578298333 139.08395800564764 73.06000000001197
  endloop
endfacet
facet normal 0.0 0.0 -1.0
  outer loop
    vertex 263.7513184744612 136.98395800564765 73.06000000001197
    vertex 261.70687578298333 139.08395800564764 73.06000000001197
    vertex 262.74215196339344 138.9476613108039 73.06000000001197
  endloop
endfacet
facet normal 0.0 0.0 -1.0
  outer loop
    vertex 263.7513184744612 136.98395800564765 73.06000000001197
    vertex 262.74215196339344 138.9476613108039 73.06000000001197
    vertex 263.70687578298333 138.54805962078538 73.06000000001197
  endloop
endfacet
facet normal 0.0 0.0 -1.0
  outer loop
    vertex 263.7513184744612 136.98395800564765 73.06000000001197
    vertex 263.70687578298333 138.54805962078538 73.06000000001197
    vertex 264.53530290772954 137.91238513039383 73.06000000001197
  endloop
endfacet
facet normal 0.0 0.0 -1.0
  outer loop
    vertex 263.7513184744612 136.98395800564765 73.06000000001197
    vertex 264.53530290772954 137.91238513039383 73.06000000001197
    vertex 264.13398878330094 136.48525234973468 73.06000000001197
  endloop
endfacet
facet normal 0.0 0.0 -1.0
  outer loop
    vertex 264.13398878330094 136.48525234973468 73.06000000001197
    vertex 264.53530290772954 137.91238513039383 73.06000000001197
    vertex 264.4139685773563 135.80932133373597 73.06000000001197
  endloop
endfacet
facet normal 0.0 0.0 -1.0
  outer loop
    vertex 264.4139685773563 135.80932133373597 73.06000000001197
    vertex 264.53530290772954 137.91238513039383 73.06000000001197
    vertex 264.5094644711574 135.08395800564764 73.06000000001197
  endloop
endfacet
facet normal 0.0 0.0 -1.0
  outer loop
    vertex 258.8784486582371 132.2555308809015 73.06000000001197
    vertex 258.9997829886104 134.35859467755932 73.06000000001197
    vertex 259.70687578298333 131.6198563905099 73.06000000001197
  endloop
endfacet
facet normal 0.0 0.0 -1.0
  outer loop
    vertex 258.9997829886104 134.35859467755932 73.06000000001197
    vertex 258.8784486582371 132.2555308809015 73.06000000001197
    vertex 258.9042870948093 135.08395800564764 73.06000000001197
  endloop
endfacet
facet normal 0.0 0.0 -1.0
  outer loop
    vertex 259.70687578298333 131.6198563905099 73.06000000001197
    vertex 258.9997829886104 134.35859467755932 73.06000000001197
    vertex 259.2797627826657 133.68266366156064 73.06000000001197
  endloop
endfacet
facet normal 0.0 0.0 -1.0
  outer loop
    vertex 259.70687578298333 131.6198563905099 73.06000000001197
    vertex 259.2797627826657 133.68266366156064 73.06000000001197
    vertex 259.6624330915055 133.18395800564767 73.06000000001197
  endloop
endfacet
facet normal 0.0 0.0 -1.0
  outer loop
    vertex 259.70687578298333 131.6198563905099 73.06000000001197
    vertex 259.6624330915055 133.18395800564767 73.06000000001197
    vertex 263.7513184744612 133.18395800564767 73.06000000001197
  endloop
endfacet
facet normal 0.0 0.0 -1.0
  outer loop
    vertex 259.70687578298333 131.6198563905099 73.06000000001197
    vertex 263.7513184744612 133.18395800564767 73.06000000001197
    vertex 260.6715996025732 131.22025470049138 73.06000000001197
  endloop
endfacet
facet normal 0.0 0.0 -1.0
  outer loop
    vertex 260.6715996025732 131.22025470049138 73.06000000001197
    vertex 263.7513184744612 133.18395800564767 73.06000000001197
    vertex 261.70687578298333 131.08395800564767 73.06000000001197
  endloop
endfacet
facet normal 0.0 0.0 -1.0
  outer loop
    vertex 261.70687578298333 131.08395800564767 73.06000000001197
    vertex 263.7513184744612 133.18395800564767 73.06000000001197
    vertex 262.74215196339344 131.22025470049138 73.06000000001197
  endloop
endfacet
facet normal 0.0 0.0 -1.0
  outer loop
    vertex 262.74215196339344 131.22025470049138 73.06000000001197
    vertex 263.7513184744612 133.18395800564767 73.06000000001197
    vertex 263.70687578298333 131.6198563905099 73.06000000001197
  endloop
endfacet
facet normal 0.0 0.0 -1.0
  outer loop
    vertex 263.70687578298333 131.6198563905099 73.06000000001197
    vertex 263.7513184744612 133.18395800564767 73.06000000001197
    vertex 264.53530290772954 132.2555308809015 73.06000000001197
  endloop
endfacet
facet normal 0.0 0.0 -1.0
  outer loop
    vertex 264.53530290772954 132.2555308809015 73.06000000001197
    vertex 263.7513184744612 133.18395800564767 73.06000000001197
    vertex 264.133988783301 133.6826636615606 73.06000000001197
  endloop
endfacet
facet normal 0.0 0.0 -1.0
  outer loop
    vertex 264.53530290772954 132.2555308809015 73.06000000001197
    vertex 264.133988783301 133.6826636615606 73.06000000001197
    vertex 264.4139685773563 134.35859467755932 73.06000000001197
  endloop
endfacet
facet normal 0.0 0.0 -1.0
  outer loop
    vertex 264.53530290772954 132.2555308809015 73.06000000001197
    vertex 264.4139685773563 134.35859467755932 73.06000000001197
    vertex 264.5094644711574 135.08395800564764 73.06000000001197
  endloop
endfacet
facet normal 0.0 0.0 -1.0
  outer loop
    vertex 264.53530290772954 132.2555308809015 73.06000000001197
    vertex 264.5094644711574 135.08395800564764 73.06000000001197
    vertex 264.53530290772954 137.91238513039383 73.06000000001197
  endloop
endfacet
facet normal 0.0 0.0 -1.0
  outer loop
    vertex 264.53530290772954 132.2555308809015 73.06000000001197
    vertex 264.53530290772954 137.91238513039383 73.06000000001197
    vertex 265.17097739812107 137.08395800564764 73.06000000001197
  endloop
endfacet
facet normal 0.0 0.0 -1.0
  outer loop
    vertex 264.53530290772954 132.2555308809015 73.06000000001197
    vertex 265.17097739812107 137.08395800564764 73.06000000001197
    vertex 265.17097739812107 133.08395800564767 73.06000000001197
  endloop
endfacet
facet normal 0.0 0.0 -1.0
  outer loop
    vertex 265.17097739812107 133.08395800564767 73.06000000001197
    vertex 265.17097739812107 137.08395800564764 73.06000000001197
    vertex 265.5705790881396 136.11923418605772 73.06000000001197
  endloop
endfacet
facet normal 0.0 0.0 -1.0
  outer loop
    vertex 265.17097739812107 133.08395800564767 73.06000000001197
    vertex 265.5705790881396 136.11923418605772 73.06000000001197
    vertex 265.5705790881396 134.04868182523757 73.06000000001197
  endloop
endfacet
facet normal 0.0 0.0 -1.0
  outer loop
    vertex 265.5705790881396 134.04868182523757 73.06000000001197
    vertex 265.5705790881396 136.11923418605772 73.06000000001197
    vertex 265.70687578298333 135.08395800564764 73.06000000001197
  endloop
endfacet
facet normal -0.9914448613738135 -0.13052619222002954 -0.0
  outer loop
    vertex 257.70687578298333 135.08395800564764 78.06000000001198
    vertex 257.84317247782707 134.04868182523757 73.06000000001197
    vertex 257.84317247782707 134.04868182523757 78.06000000001198
  endloop
endfacet
facet normal -0.9914448613738135 -0.13052619222002954 -0.0
  outer loop
    vertex 257.84317247782707 134.04868182523757 73.06000000001197
    vertex 257.70687578298333 135.08395800564764 78.06000000001198
    vertex 257.70687578298333 135.08395800564764 73.06000000001197
  endloop
endfacet
facet normal -0.13052619222005077 0.9914448613738106 0.0
  outer loop
    vertex 260.6715996025732 138.9476613108039 78.06000000001198
    vertex 261.70687578298333 139.08395800564764 73.06000000001197
    vertex 260.6715996025732 138.9476613108039 73.06000000001197
  endloop
endfacet
facet normal -0.13052619222005077 0.9914448613738106 0.0
  outer loop
    vertex 261.70687578298333 139.08395800564764 73.06000000001197
    vertex 260.6715996025732 138.9476613108039 78.06000000001198
    vertex 261.70687578298333 139.08395800564764 78.06000000001198
  endloop
endfacet
facet normal -0.6087614290087263 -0.793353340291231 -0.0
  outer loop
    vertex 259.70687578298333 131.6198563905099 78.06000000001198
    vertex 258.8784486582371 132.2555308809015 73.06000000001197
    vertex 259.70687578298333 131.6198563905099 73.06000000001197
  endloop
endfacet
facet normal -0.6087614290087263 -0.793353340291231 -0.0
  outer loop
    vertex 258.8784486582371 132.2555308809015 73.06000000001197
    vertex 259.70687578298333 131.6198563905099 78.06000000001198
    vertex 258.8784486582371 132.2555308809015 78.06000000001198
  endloop
endfacet
facet normal -0.6087614290087263 0.793353340291231 0.0
  outer loop
    vertex 258.8784486582371 137.91238513039383 78.06000000001198
    vertex 259.70687578298333 138.5480596207854 73.06000000001197
    vertex 258.8784486582371 137.91238513039383 73.06000000001197
  endloop
endfacet
facet normal -0.6087614290087263 0.793353340291231 0.0
  outer loop
    vertex 259.70687578298333 138.5480596207854 73.06000000001197
    vertex 258.8784486582371 137.91238513039383 78.06000000001198
    vertex 259.70687578298333 138.5480596207854 78.06000000001198
  endloop
endfacet
facet normal -0.9238795325112731 0.38268343236512276 0.0
  outer loop
    vertex 258.2427741678456 137.08395800564764 78.06000000001198
    vertex 257.84317247782707 136.11923418605775 73.06000000001197
    vertex 257.84317247782707 136.11923418605775 78.06000000001198
  endloop
endfacet
facet normal -0.9238795325112731 0.38268343236512276 0.0
  outer loop
    vertex 257.84317247782707 136.11923418605775 73.06000000001197
    vertex 258.2427741678456 137.08395800564764 78.06000000001198
    vertex 258.2427741678456 137.08395800564764 73.06000000001197
  endloop
endfacet
facet normal -0.7933533402912437 0.6087614290087096 0.0
  outer loop
    vertex 258.8784486582371 137.91238513039383 78.06000000001198
    vertex 258.2427741678456 137.08395800564764 73.06000000001197
    vertex 258.2427741678456 137.08395800564764 78.06000000001198
  endloop
endfacet
facet normal -0.7933533402912437 0.6087614290087096 0.0
  outer loop
    vertex 258.2427741678456 137.08395800564764 73.06000000001197
    vertex 258.8784486582371 137.91238513039383 78.06000000001198
    vertex 258.8784486582371 137.91238513039383 73.06000000001197
  endloop
endfacet
facet normal -0.9238795325112731 -0.38268343236512276 -0.0
  outer loop
    vertex 257.84317247782707 134.04868182523757 78.06000000001198
    vertex 258.2427741678456 133.08395800564767 73.06000000001197
    vertex 258.2427741678456 133.08395800564767 78.06000000001198
  endloop
endfacet
facet normal -0.9238795325112731 -0.38268343236512276 -0.0
  outer loop
    vertex 258.2427741678456 133.08395800564767 73.06000000001197
    vertex 257.84317247782707 134.04868182523757 78.06000000001198
    vertex 257.84317247782707 134.04868182523757 73.06000000001197
  endloop
endfacet
facet normal 0.13052619222005077 0.9914448613738106 0.0
  outer loop
    vertex 261.70687578298333 139.08395800564764 78.06000000001198
    vertex 262.74215196339344 138.9476613108039 73.06000000001197
    vertex 261.70687578298333 139.08395800564764 73.06000000001197
  endloop
endfacet
facet normal 0.13052619222005077 0.9914448613738106 0.0
  outer loop
    vertex 262.74215196339344 138.9476613108039 73.06000000001197
    vertex 261.70687578298333 139.08395800564764 78.06000000001198
    vertex 262.74215196339344 138.9476613108039 78.06000000001198
  endloop
endfacet
facet normal -0.7933533402912437 -0.6087614290087096 -0.0
  outer loop
    vertex 258.2427741678456 133.08395800564767 78.06000000001198
    vertex 258.8784486582371 132.2555308809015 73.06000000001197
    vertex 258.8784486582371 132.2555308809015 78.06000000001198
  endloop
endfacet
facet normal -0.7933533402912437 -0.6087614290087096 -0.0
  outer loop
    vertex 258.8784486582371 132.2555308809015 73.06000000001197
    vertex 258.2427741678456 133.08395800564767 78.06000000001198
    vertex 258.2427741678456 133.08395800564767 73.06000000001197
  endloop
endfacet
facet normal -0.38268343236508595 0.9238795325112884 0.0
  outer loop
    vertex 259.70687578298333 138.5480596207854 78.06000000001198
    vertex 260.6715996025732 138.9476613108039 73.06000000001197
    vertex 259.70687578298333 138.5480596207854 73.06000000001197
  endloop
endfacet
facet normal -0.38268343236508595 0.9238795325112884 0.0
  outer loop
    vertex 260.6715996025732 138.9476613108039 73.06000000001197
    vertex 259.70687578298333 138.5480596207854 78.06000000001198
    vertex 260.6715996025732 138.9476613108039 78.06000000001198
  endloop
endfacet
facet normal -0.9914448613738135 0.13052619222002954 0.0
  outer loop
    vertex 257.84317247782707 136.11923418605775 78.06000000001198
    vertex 257.70687578298333 135.08395800564764 73.06000000001197
    vertex 257.70687578298333 135.08395800564764 78.06000000001198
  endloop
endfacet
facet normal -0.9914448613738135 0.13052619222002954 0.0
  outer loop
    vertex 257.70687578298333 135.08395800564764 73.06000000001197
    vertex 257.84317247782707 136.11923418605775 78.06000000001198
    vertex 257.84317247782707 136.11923418605775 73.06000000001197
  endloop
endfacet
facet normal 0.13052619222005077 -0.9914448613738106 0.0
  outer loop
    vertex 262.74215196339344 131.22025470049138 78.06000000001198
    vertex 261.70687578298333 131.08395800564767 73.06000000001197
    vertex 262.74215196339344 131.22025470049138 73.06000000001197
  endloop
endfacet
facet normal 0.13052619222005077 -0.9914448613738106 0.0
  outer loop
    vertex 261.70687578298333 131.08395800564767 73.06000000001197
    vertex 262.74215196339344 131.22025470049138 78.06000000001198
    vertex 261.70687578298333 131.08395800564767 78.06000000001198
  endloop
endfacet
facet normal 0.6087614290087263 -0.793353340291231 0.0
  outer loop
    vertex 264.53530290772954 132.2555308809015 78.06000000001198
    vertex 263.70687578298333 131.6198563905099 73.06000000001197
    vertex 264.53530290772954 132.2555308809015 73.06000000001197
  endloop
endfacet
facet normal 0.6087614290087263 -0.793353340291231 0.0
  outer loop
    vertex 263.70687578298333 131.6198563905099 73.06000000001197
    vertex 264.53530290772954 132.2555308809015 78.06000000001198
    vertex 263.70687578298333 131.6198563905099 78.06000000001198
  endloop
endfacet
facet normal 0.7933533402912437 -0.6087614290087096 0.0
  outer loop
    vertex 265.17097739812107 133.08395800564767 73.06000000001197
    vertex 264.53530290772954 132.2555308809015 78.06000000001198
    vertex 264.53530290772954 132.2555308809015 73.06000000001197
  endloop
endfacet
facet normal 0.7933533402912437 -0.6087614290087096 0.0
  outer loop
    vertex 264.53530290772954 132.2555308809015 78.06000000001198
    vertex 265.17097739812107 133.08395800564767 73.06000000001197
    vertex 265.17097739812107 133.08395800564767 78.06000000001198
  endloop
endfacet
facet normal -0.13052619222005077 -0.9914448613738106 -0.0
  outer loop
    vertex 261.70687578298333 131.08395800564767 78.06000000001198
    vertex 260.6715996025732 131.22025470049138 73.06000000001197
    vertex 261.70687578298333 131.08395800564767 73.06000000001197
  endloop
endfacet
facet normal -0.13052619222005077 -0.9914448613738106 -0.0
  outer loop
    vertex 260.6715996025732 131.22025470049138 73.06000000001197
    vertex 261.70687578298333 131.08395800564767 78.06000000001198
    vertex 260.6715996025732 131.22025470049138 78.06000000001198
  endloop
endfacet
facet normal -0.38268343236508595 -0.9238795325112884 -0.0
  outer loop
    vertex 260.6715996025732 131.22025470049138 78.06000000001198
    vertex 259.70687578298333 131.6198563905099 73.06000000001197
    vertex 260.6715996025732 131.22025470049138 73.06000000001197
  endloop
endfacet
facet normal -0.38268343236508595 -0.9238795325112884 -0.0
  outer loop
    vertex 259.70687578298333 131.6198563905099 73.06000000001197
    vertex 260.6715996025732 131.22025470049138 78.06000000001198
    vertex 259.70687578298333 131.6198563905099 78.06000000001198
  endloop
endfacet
facet normal 0.9238795325112731 -0.38268343236512276 0.0
  outer loop
    vertex 265.5705790881396 134.04868182523757 73.06000000001197
    vertex 265.17097739812107 133.08395800564767 78.06000000001198
    vertex 265.17097739812107 133.08395800564767 73.06000000001197
  endloop
endfacet
facet normal 0.9238795325112731 -0.38268343236512276 0.0
  outer loop
    vertex 265.17097739812107 133.08395800564767 78.06000000001198
    vertex 265.5705790881396 134.04868182523757 73.06000000001197
    vertex 265.5705790881396 134.04868182523757 78.06000000001198
  endloop
endfacet
facet normal 0.9914448613738135 -0.13052619222002954 0.0
  outer loop
    vertex 265.70687578298333 135.08395800564764 73.06000000001197
    vertex 265.5705790881396 134.04868182523757 78.06000000001198
    vertex 265.5705790881396 134.04868182523757 73.06000000001197
  endloop
endfacet
facet normal 0.9914448613738135 -0.13052619222002954 0.0
  outer loop
    vertex 265.5705790881396 134.04868182523757 78.06000000001198
    vertex 265.70687578298333 135.08395800564764 73.06000000001197
    vertex 265.70687578298333 135.08395800564764 78.06000000001198
  endloop
endfacet
facet normal 0.9914448613738129 0.1305261922200323 0.0
  outer loop
    vertex 265.5705790881396 136.11923418605772 73.06000000001197
    vertex 265.70687578298333 135.08395800564764 78.06000000001198
    vertex 265.70687578298333 135.08395800564764 73.06000000001197
  endloop
endfacet
facet normal 0.9914448613738129 0.1305261922200323 0.0
  outer loop
    vertex 265.70687578298333 135.08395800564764 78.06000000001198
    vertex 265.5705790881396 136.11923418605772 73.06000000001197
    vertex 265.5705790881396 136.11923418605772 78.06000000001198
  endloop
endfacet
facet normal 0.38268343236508595 -0.9238795325112884 0.0
  outer loop
    vertex 263.70687578298333 131.6198563905099 78.06000000001198
    vertex 262.74215196339344 131.22025470049138 73.06000000001197
    vertex 263.70687578298333 131.6198563905099 73.06000000001197
  endloop
endfacet
facet normal 0.38268343236508595 -0.9238795325112884 0.0
  outer loop
    vertex 262.74215196339344 131.22025470049138 73.06000000001197
    vertex 263.70687578298333 131.6198563905099 78.06000000001198
    vertex 262.74215196339344 131.22025470049138 78.06000000001198
  endloop
endfacet
facet normal 0.0 0.0 1.0
  outer loop
    vertex 257.84317247782707 134.04868182523757 78.06000000001198
    vertex 257.84317247782707 136.11923418605775 78.06000000001198
    vertex 257.70687578298333 135.08395800564764 78.06000000001198
  endloop
endfacet
facet normal 0.0 0.0 1.0
  outer loop
    vertex 257.84317247782707 136.11923418605775 78.06000000001198
    vertex 257.84317247782707 134.04868182523757 78.06000000001198
    vertex 258.2427741678456 133.08395800564767 78.06000000001198
  endloop
endfacet
facet normal 0.0 0.0 1.0
  outer loop
    vertex 257.84317247782707 136.11923418605775 78.06000000001198
    vertex 258.2427741678456 133.08395800564767 78.06000000001198
    vertex 258.2427741678456 137.08395800564764 78.06000000001198
  endloop
endfacet
facet normal 0.0 0.0 1.0
  outer loop
    vertex 258.2427741678456 137.08395800564764 78.06000000001198
    vertex 258.2427741678456 133.08395800564767 78.06000000001198
    vertex 258.8784486582371 132.2555308809015 78.06000000001198
  endloop
endfacet
facet normal 0.0 0.0 1.0
  outer loop
    vertex 258.2427741678456 137.08395800564764 78.06000000001198
    vertex 258.8784486582371 132.2555308809015 78.06000000001198
    vertex 258.8784486582371 137.91238513039383 78.06000000001198
  endloop
endfacet
facet normal 0.0 0.0 1.0
  outer loop
    vertex 258.8784486582371 137.91238513039383 78.06000000001198
    vertex 258.8784486582371 132.2555308809015 78.06000000001198
    vertex 258.9042870948093 135.08395800564764 78.06000000001198
  endloop
endfacet
facet normal 0.0 0.0 1.0
  outer loop
    vertex 258.9042870948093 135.08395800564764 78.06000000001198
    vertex 258.8784486582371 132.2555308809015 78.06000000001198
    vertex 258.9997829886104 134.35859467755932 78.06000000001198
  endloop
endfacet
facet normal 0.0 0.0 1.0
  outer loop
    vertex 258.9997829886104 134.35859467755932 78.06000000001198
    vertex 258.8784486582371 132.2555308809015 78.06000000001198
    vertex 259.70687578298333 131.6198563905099 78.06000000001198
  endloop
endfacet
facet normal 0.0 0.0 1.0
  outer loop
    vertex 258.9997829886104 134.35859467755932 78.06000000001198
    vertex 259.70687578298333 131.6198563905099 78.06000000001198
    vertex 259.2797627826657 133.68266366156064 78.06000000001198
  endloop
endfacet
facet normal 0.0 0.0 1.0
  outer loop
    vertex 259.2797627826657 133.68266366156064 78.06000000001198
    vertex 259.70687578298333 131.6198563905099 78.06000000001198
    vertex 259.6624330915055 133.18395800564767 78.06000000001198
  endloop
endfacet
facet normal 0.0 0.0 1.0
  outer loop
    vertex 259.6624330915055 133.18395800564767 78.06000000001198
    vertex 259.70687578298333 131.6198563905099 78.06000000001198
    vertex 263.7513184744612 133.18395800564767 78.06000000001198
  endloop
endfacet
facet normal 0.0 0.0 1.0
  outer loop
    vertex 263.7513184744612 133.18395800564767 78.06000000001198
    vertex 259.70687578298333 131.6198563905099 78.06000000001198
    vertex 260.6715996025732 131.22025470049138 78.06000000001198
  endloop
endfacet
facet normal 0.0 0.0 1.0
  outer loop
    vertex 263.7513184744612 133.18395800564767 78.06000000001198
    vertex 260.6715996025732 131.22025470049138 78.06000000001198
    vertex 261.70687578298333 131.08395800564767 78.06000000001198
  endloop
endfacet
facet normal 0.0 0.0 1.0
  outer loop
    vertex 263.7513184744612 133.18395800564767 78.06000000001198
    vertex 261.70687578298333 131.08395800564767 78.06000000001198
    vertex 262.74215196339344 131.22025470049138 78.06000000001198
  endloop
endfacet
facet normal 0.0 0.0 1.0
  outer loop
    vertex 263.7513184744612 133.18395800564767 78.06000000001198
    vertex 262.74215196339344 131.22025470049138 78.06000000001198
    vertex 263.70687578298333 131.6198563905099 78.06000000001198
  endloop
endfacet
facet normal 0.0 0.0 1.0
  outer loop
    vertex 263.7513184744612 133.18395800564767 78.06000000001198
    vertex 263.70687578298333 131.6198563905099 78.06000000001198
    vertex 264.53530290772954 132.2555308809015 78.06000000001198
  endloop
endfacet
facet normal 0.0 0.0 1.0
  outer loop
    vertex 263.7513184744612 133.18395800564767 78.06000000001198
    vertex 264.53530290772954 132.2555308809015 78.06000000001198
    vertex 264.133988783301 133.6826636615606 78.06000000001198
  endloop
endfacet
facet normal 0.0 0.0 1.0
  outer loop
    vertex 264.133988783301 133.6826636615606 78.06000000001198
    vertex 264.53530290772954 132.2555308809015 78.06000000001198
    vertex 264.4139685773563 134.35859467755932 78.06000000001198
  endloop
endfacet
facet normal 0.0 0.0 1.0
  outer loop
    vertex 264.4139685773563 134.35859467755932 78.06000000001198
    vertex 264.53530290772954 132.2555308809015 78.06000000001198
    vertex 264.5094644711574 135.08395800564764 78.06000000001198
  endloop
endfacet
facet normal 0.0 0.0 1.0
  outer loop
    vertex 258.8784486582371 137.91238513039383 78.06000000001198
    vertex 258.9997829886104 135.80932133373597 78.06000000001198
    vertex 259.70687578298333 138.5480596207854 78.06000000001198
  endloop
endfacet
facet normal 0.0 0.0 1.0
  outer loop
    vertex 258.9997829886104 135.80932133373597 78.06000000001198
    vertex 258.8784486582371 137.91238513039383 78.06000000001198
    vertex 258.9042870948093 135.08395800564764 78.06000000001198
  endloop
endfacet
facet normal 0.0 0.0 1.0
  outer loop
    vertex 259.70687578298333 138.5480596207854 78.06000000001198
    vertex 258.9997829886104 135.80932133373597 78.06000000001198
    vertex 259.2797627826657 136.48525234973468 78.06000000001198
  endloop
endfacet
facet normal 0.0 0.0 1.0
  outer loop
    vertex 259.70687578298333 138.5480596207854 78.06000000001198
    vertex 259.2797627826657 136.48525234973468 78.06000000001198
    vertex 259.6624330915055 136.98395800564765 78.06000000001198
  endloop
endfacet
facet normal 0.0 0.0 1.0
  outer loop
    vertex 259.70687578298333 138.5480596207854 78.06000000001198
    vertex 259.6624330915055 136.98395800564765 78.06000000001198
    vertex 263.7513184744612 136.98395800564765 78.06000000001198
  endloop
endfacet
facet normal 0.0 0.0 1.0
  outer loop
    vertex 259.70687578298333 138.5480596207854 78.06000000001198
    vertex 263.7513184744612 136.98395800564765 78.06000000001198
    vertex 260.6715996025732 138.9476613108039 78.06000000001198
  endloop
endfacet
facet normal 0.0 0.0 1.0
  outer loop
    vertex 260.6715996025732 138.9476613108039 78.06000000001198
    vertex 263.7513184744612 136.98395800564765 78.06000000001198
    vertex 261.70687578298333 139.08395800564764 78.06000000001198
  endloop
endfacet
facet normal 0.0 0.0 1.0
  outer loop
    vertex 261.70687578298333 139.08395800564764 78.06000000001198
    vertex 263.7513184744612 136.98395800564765 78.06000000001198
    vertex 262.74215196339344 138.9476613108039 78.06000000001198
  endloop
endfacet
facet normal 0.0 0.0 1.0
  outer loop
    vertex 262.74215196339344 138.9476613108039 78.06000000001198
    vertex 263.7513184744612 136.98395800564765 78.06000000001198
    vertex 263.70687578298333 138.54805962078538 78.06000000001198
  endloop
endfacet
facet normal 0.0 0.0 1.0
  outer loop
    vertex 263.70687578298333 138.54805962078538 78.06000000001198
    vertex 263.7513184744612 136.98395800564765 78.06000000001198
    vertex 264.53530290772954 137.91238513039383 78.06000000001198
  endloop
endfacet
facet normal 0.0 0.0 1.0
  outer loop
    vertex 264.53530290772954 137.91238513039383 78.06000000001198
    vertex 263.7513184744612 136.98395800564765 78.06000000001198
    vertex 264.13398878330094 136.48525234973468 78.06000000001198
  endloop
endfacet
facet normal 0.0 0.0 1.0
  outer loop
    vertex 264.53530290772954 137.91238513039383 78.06000000001198
    vertex 264.13398878330094 136.48525234973468 78.06000000001198
    vertex 264.4139685773563 135.80932133373597 78.06000000001198
  endloop
endfacet
facet normal 0.0 0.0 1.0
  outer loop
    vertex 264.53530290772954 137.91238513039383 78.06000000001198
    vertex 264.4139685773563 135.80932133373597 78.06000000001198
    vertex 264.5094644711574 135.08395800564764 78.06000000001198
  endloop
endfacet
facet normal 0.0 0.0 1.0
  outer loop
    vertex 264.53530290772954 137.91238513039383 78.06000000001198
    vertex 264.5094644711574 135.08395800564764 78.06000000001198
    vertex 264.53530290772954 132.2555308809015 78.06000000001198
  endloop
endfacet
facet normal 0.0 0.0 1.0
  outer loop
    vertex 264.53530290772954 137.91238513039383 78.06000000001198
    vertex 264.53530290772954 132.2555308809015 78.06000000001198
    vertex 265.17097739812107 133.08395800564767 78.06000000001198
  endloop
endfacet
facet normal 0.0 0.0 1.0
  outer loop
    vertex 264.53530290772954 137.91238513039383 78.06000000001198
    vertex 265.17097739812107 133.08395800564767 78.06000000001198
    vertex 265.17097739812107 137.08395800564764 78.06000000001198
  endloop
endfacet
facet normal 0.0 0.0 1.0
  outer loop
    vertex 265.17097739812107 137.08395800564764 78.06000000001198
    vertex 265.17097739812107 133.08395800564767 78.06000000001198
    vertex 265.5705790881396 134.04868182523757 78.06000000001198
  endloop
endfacet
facet normal 0.0 0.0 1.0
  outer loop
    vertex 265.17097739812107 137.08395800564764 78.06000000001198
    vertex 265.5705790881396 134.04868182523757 78.06000000001198
    vertex 265.5705790881396 136.11923418605772 78.06000000001198
  endloop
endfacet
facet normal 0.0 0.0 1.0
  outer loop
    vertex 265.5705790881396 136.11923418605772 78.06000000001198
    vertex 265.5705790881396 134.04868182523757 78.06000000001198
    vertex 265.70687578298333 135.08395800564764 78.06000000001198
  endloop
endfacet
facet normal 0.0 0.0 1.0
  outer loop
    vertex 257.84317247782707 134.04868182523757 104.14833605103163
    vertex 257.84317247782707 136.11923418605775 104.14833605103163
    vertex 257.70687578298333 135.08395800564764 104.14833605103163
  endloop
endfacet
facet normal 0.0 0.0 1.0
  outer loop
    vertex 257.84317247782707 136.11923418605775 104.14833605103163
    vertex 257.84317247782707 134.04868182523757 104.14833605103163
    vertex 258.2427741678456 133.08395800564767 104.14833605103163
  endloop
endfacet
facet normal 0.0 0.0 1.0
  outer loop
    vertex 257.84317247782707 136.11923418605775 104.14833605103163
    vertex 258.2427741678456 133.08395800564767 104.14833605103163
    vertex 258.2427741678456 137.08395800564764 104.14833605103163
  endloop
endfacet
facet normal 0.0 0.0 1.0
  outer loop
    vertex 258.2427741678456 137.08395800564764 104.14833605103163
    vertex 258.2427741678456 133.08395800564767 104.14833605103163
    vertex 258.8784486582371 132.2555308809015 104.14833605103163
  endloop
endfacet
facet normal 0.0 0.0 1.0
  outer loop
    vertex 258.2427741678456 137.08395800564764 104.14833605103163
    vertex 258.8784486582371 132.2555308809015 104.14833605103163
    vertex 258.8784486582371 137.91238513039383 104.14833605103163
  endloop
endfacet
facet normal 0.0 0.0 1.0
  outer loop
    vertex 258.8784486582371 137.91238513039383 104.14833605103163
    vertex 258.8784486582371 132.2555308809015 104.14833605103163
    vertex 259.70687578298333 131.6198563905099 104.14833605103163
  endloop
endfacet
facet normal 0.0 0.0 1.0
  outer loop
    vertex 258.8784486582371 137.91238513039383 104.14833605103163
    vertex 259.70687578298333 131.6198563905099 104.14833605103163
    vertex 259.70687578298333 138.5480596207854 104.14833605103163
  endloop
endfacet
facet normal 0.0 0.0 1.0
  outer loop
    vertex 259.70687578298333 138.5480596207854 104.14833605103163
    vertex 259.70687578298333 131.6198563905099 104.14833605103163
    vertex 260.6715996025732 131.22025470049138 104.14833605103163
  endloop
endfacet
facet normal 0.0 0.0 1.0
  outer loop
    vertex 259.70687578298333 138.5480596207854 104.14833605103163
    vertex 260.6715996025732 131.22025470049138 104.14833605103163
    vertex 260.6715996025732 138.9476613108039 104.14833605103163
  endloop
endfacet
facet normal 0.0 0.0 1.0
  outer loop
    vertex 260.6715996025732 138.9476613108039 104.14833605103163
    vertex 260.6715996025732 131.22025470049138 104.14833605103163
    vertex 261.70687578298333 131.08395800564767 104.14833605103163
  endloop
endfacet
facet normal 0.0 0.0 1.0
  outer loop
    vertex 260.6715996025732 138.9476613108039 104.14833605103163
    vertex 261.70687578298333 131.08395800564767 104.14833605103163
    vertex 261.70687578298333 139.08395800564764 104.14833605103163
  endloop
endfacet
facet normal 0.0 0.0 1.0
  outer loop
    vertex 261.70687578298333 139.08395800564764 104.14833605103163
    vertex 261.70687578298333 131.08395800564767 104.14833605103163
    vertex 262.74215196339344 131.22025470049138 104.14833605103163
  endloop
endfacet
facet normal 0.0 0.0 1.0
  outer loop
    vertex 261.70687578298333 139.08395800564764 104.14833605103163
    vertex 262.74215196339344 131.22025470049138 104.14833605103163
    vertex 262.74215196339344 138.9476613108039 104.14833605103163
  endloop
endfacet
facet normal 0.0 0.0 1.0
  outer loop
    vertex 262.74215196339344 138.9476613108039 104.14833605103163
    vertex 262.74215196339344 131.22025470049138 104.14833605103163
    vertex 263.70687578298333 131.6198563905099 104.14833605103163
  endloop
endfacet
facet normal 0.0 0.0 1.0
  outer loop
    vertex 262.74215196339344 138.9476613108039 104.14833605103163
    vertex 263.70687578298333 131.6198563905099 104.14833605103163
    vertex 263.70687578298333 138.54805962078538 104.14833605103163
  endloop
endfacet
facet normal 0.0 0.0 1.0
  outer loop
    vertex 263.70687578298333 138.54805962078538 104.14833605103163
    vertex 263.70687578298333 131.6198563905099 104.14833605103163
    vertex 264.53530290772954 132.2555308809015 104.14833605103163
  endloop
endfacet
facet normal 0.0 0.0 1.0
  outer loop
    vertex 263.70687578298333 138.54805962078538 104.14833605103163
    vertex 264.53530290772954 132.2555308809015 104.14833605103163
    vertex 264.53530290772954 137.91238513039383 104.14833605103163
  endloop
endfacet
facet normal 0.0 0.0 1.0
  outer loop
    vertex 264.53530290772954 137.91238513039383 104.14833605103163
    vertex 264.53530290772954 132.2555308809015 104.14833605103163
    vertex 265.17097739812107 133.08395800564767 104.14833605103163
  endloop
endfacet
facet normal 0.0 0.0 1.0
  outer loop
    vertex 264.53530290772954 137.91238513039383 104.14833605103163
    vertex 265.17097739812107 133.08395800564767 104.14833605103163
    vertex 265.17097739812107 137.08395800564764 104.14833605103163
  endloop
endfacet
facet normal 0.0 0.0 1.0
  outer loop
    vertex 265.17097739812107 137.08395800564764 104.14833605103163
    vertex 265.17097739812107 133.08395800564767 104.14833605103163
    vertex 265.5705790881396 134.04868182523757 104.14833605103163
  endloop
endfacet
facet normal 0.0 0.0 1.0
  outer loop
    vertex 265.17097739812107 137.08395800564764 104.14833605103163
    vertex 265.5705790881396 134.04868182523757 104.14833605103163
    vertex 265.5705790881396 136.11923418605772 104.14833605103163
  endloop
endfacet
facet normal 0.0 0.0 1.0
  outer loop
    vertex 265.5705790881396 136.11923418605772 104.14833605103163
    vertex 265.5705790881396 134.04868182523757 104.14833605103163
    vertex 265.70687578298333 135.08395800564764 104.14833605103163
  endloop
endfacet
facet normal 0.9238795325112762 0.3826834323651151 0.0
  outer loop
    vertex 265.17097739812107 137.08395800564764 78.06000000001198
    vertex 265.5705790881396 136.11923418605772 104.14833605103163
    vertex 265.5705790881396 136.11923418605772 78.06000000001198
  endloop
endfacet
facet normal 0.9238795325112762 0.3826834323651151 0.0
  outer loop
    vertex 265.5705790881396 136.11923418605772 104.14833605103163
    vertex 265.17097739812107 137.08395800564764 78.06000000001198
    vertex 265.17097739812107 137.08395800564764 104.14833605103163
  endloop
endfacet
facet normal 0.7933533402912437 0.6087614290087096 0.0
  outer loop
    vertex 264.53530290772954 137.91238513039383 78.06000000001198
    vertex 265.17097739812107 137.08395800564764 104.14833605103163
    vertex 265.17097739812107 137.08395800564764 78.06000000001198
  endloop
endfacet
facet normal 0.7933533402912437 0.6087614290087096 0.0
  outer loop
    vertex 265.17097739812107 137.08395800564764 104.14833605103163
    vertex 264.53530290772954 137.91238513039383 78.06000000001198
    vertex 264.53530290772954 137.91238513039383 104.14833605103163
  endloop
endfacet
facet normal 0.6087614290087128 0.7933533402912413 0.0
  outer loop
    vertex 263.70687578298333 138.54805962078538 104.14833605103163
    vertex 264.53530290772954 137.91238513039383 78.06000000001198
    vertex 263.70687578298333 138.54805962078538 78.06000000001198
  endloop
endfacet
facet normal 0.6087614290087128 0.7933533402912413 0.0
  outer loop
    vertex 264.53530290772954 137.91238513039383 78.06000000001198
    vertex 263.70687578298333 138.54805962078538 104.14833605103163
    vertex 264.53530290772954 137.91238513039383 104.14833605103163
  endloop
endfacet
facet normal 0.3826834323651044 0.9238795325112807 0.0
  outer loop
    vertex 262.74215196339344 138.9476613108039 104.14833605103163
    vertex 263.70687578298333 138.54805962078538 78.06000000001198
    vertex 262.74215196339344 138.9476613108039 78.06000000001198
  endloop
endfacet
facet normal 0.3826834323651044 0.9238795325112807 0.0
  outer loop
    vertex 263.70687578298333 138.54805962078538 78.06000000001198
    vertex 262.74215196339344 138.9476613108039 104.14833605103163
    vertex 263.70687578298333 138.54805962078538 104.14833605103163
  endloop
endfacet
facet normal 0.13052619222005077 0.9914448613738106 0.0
  outer loop
    vertex 261.70687578298333 139.08395800564764 104.14833605103163
    vertex 262.74215196339344 138.9476613108039 78.06000000001198
    vertex 261.70687578298333 139.08395800564764 78.06000000001198
  endloop
endfacet
facet normal 0.13052619222005077 0.9914448613738106 0.0
  outer loop
    vertex 262.74215196339344 138.9476613108039 78.06000000001198
    vertex 261.70687578298333 139.08395800564764 104.14833605103163
    vertex 262.74215196339344 138.9476613108039 104.14833605103163
  endloop
endfacet
facet normal -0.13052619222005077 0.9914448613738106 0.0
  outer loop
    vertex 260.6715996025732 138.9476613108039 104.14833605103163
    vertex 261.70687578298333 139.08395800564764 78.06000000001198
    vertex 260.6715996025732 138.9476613108039 78.06000000001198
  endloop
endfacet
facet normal -0.13052619222005077 0.9914448613738106 0.0
  outer loop
    vertex 261.70687578298333 139.08395800564764 78.06000000001198
    vertex 260.6715996025732 138.9476613108039 104.14833605103163
    vertex 261.70687578298333 139.08395800564764 104.14833605103163
  endloop
endfacet
facet normal -0.38268343236508595 0.9238795325112884 0.0
  outer loop
    vertex 259.70687578298333 138.5480596207854 104.14833605103163
    vertex 260.6715996025732 138.9476613108039 78.06000000001198
    vertex 259.70687578298333 138.5480596207854 78.06000000001198
  endloop
endfacet
facet normal -0.38268343236508595 0.9238795325112884 0.0
  outer loop
    vertex 260.6715996025732 138.9476613108039 78.06000000001198
    vertex 259.70687578298333 138.5480596207854 104.14833605103163
    vertex 260.6715996025732 138.9476613108039 104.14833605103163
  endloop
endfacet
facet normal -0.6087614290087263 0.793353340291231 0.0
  outer loop
    vertex 258.8784486582371 137.91238513039383 104.14833605103163
    vertex 259.70687578298333 138.5480596207854 78.06000000001198
    vertex 258.8784486582371 137.91238513039383 78.06000000001198
  endloop
endfacet
facet normal -0.6087614290087263 0.793353340291231 0.0
  outer loop
    vertex 259.70687578298333 138.5480596207854 78.06000000001198
    vertex 258.8784486582371 137.91238513039383 104.14833605103163
    vertex 259.70687578298333 138.5480596207854 104.14833605103163
  endloop
endfacet
facet normal -0.7933533402912437 0.6087614290087096 0.0
  outer loop
    vertex 258.8784486582371 137.91238513039383 104.14833605103163
    vertex 258.2427741678456 137.08395800564764 78.06000000001198
    vertex 258.2427741678456 137.08395800564764 104.14833605103163
  endloop
endfacet
facet normal -0.7933533402912437 0.6087614290087096 0.0
  outer loop
    vertex 258.2427741678456 137.08395800564764 78.06000000001198
    vertex 258.8784486582371 137.91238513039383 104.14833605103163
    vertex 258.8784486582371 137.91238513039383 78.06000000001198
  endloop
endfacet
facet normal -0.9238795325112731 0.38268343236512276 0.0
  outer loop
    vertex 258.2427741678456 137.08395800564764 104.14833605103163
    vertex 257.84317247782707 136.11923418605775 78.06000000001198
    vertex 257.84317247782707 136.11923418605775 104.14833605103163
  endloop
endfacet
facet normal -0.9238795325112731 0.38268343236512276 0.0
  outer loop
    vertex 257.84317247782707 136.11923418605775 78.06000000001198
    vertex 258.2427741678456 137.08395800564764 104.14833605103163
    vertex 258.2427741678456 137.08395800564764 78.06000000001198
  endloop
endfacet
facet normal -0.9914448613738135 0.13052619222002954 0.0
  outer loop
    vertex 257.84317247782707 136.11923418605775 104.14833605103163
    vertex 257.70687578298333 135.08395800564764 78.06000000001198
    vertex 257.70687578298333 135.08395800564764 104.14833605103163
  endloop
endfacet
facet normal -0.9914448613738135 0.13052619222002954 0.0
  outer loop
    vertex 257.70687578298333 135.08395800564764 78.06000000001198
    vertex 257.84317247782707 136.11923418605775 104.14833605103163
    vertex 257.84317247782707 136.11923418605775 78.06000000001198
  endloop
endfacet
facet normal -0.9914448613738135 -0.13052619222002954 0.0
  outer loop
    vertex 257.70687578298333 135.08395800564764 104.14833605103163
    vertex 257.84317247782707 134.04868182523757 78.06000000001198
    vertex 257.84317247782707 134.04868182523757 104.14833605103163
  endloop
endfacet
facet normal -0.9914448613738135 -0.13052619222002954 0.0
  outer loop
    vertex 257.84317247782707 134.04868182523757 78.06000000001198
    vertex 257.70687578298333 135.08395800564764 104.14833605103163
    vertex 257.70687578298333 135.08395800564764 78.06000000001198
  endloop
endfacet
facet normal -0.9238795325112731 -0.38268343236512276 0.0
  outer loop
    vertex 257.84317247782707 134.04868182523757 104.14833605103163
    vertex 258.2427741678456 133.08395800564767 78.06000000001198
    vertex 258.2427741678456 133.08395800564767 104.14833605103163
  endloop
endfacet
facet normal -0.9238795325112731 -0.38268343236512276 0.0
  outer loop
    vertex 258.2427741678456 133.08395800564767 78.06000000001198
    vertex 257.84317247782707 134.04868182523757 104.14833605103163
    vertex 257.84317247782707 134.04868182523757 78.06000000001198
  endloop
endfacet
facet normal -0.7933533402912437 -0.6087614290087096 0.0
  outer loop
    vertex 258.2427741678456 133.08395800564767 104.14833605103163
    vertex 258.8784486582371 132.2555308809015 78.06000000001198
    vertex 258.8784486582371 132.2555308809015 104.14833605103163
  endloop
endfacet
facet normal -0.7933533402912437 -0.6087614290087096 0.0
  outer loop
    vertex 258.8784486582371 132.2555308809015 78.06000000001198
    vertex 258.2427741678456 133.08395800564767 104.14833605103163
    vertex 258.2427741678456 133.08395800564767 78.06000000001198
  endloop
endfacet
facet normal -0.6087614290087263 -0.793353340291231 0.0
  outer loop
    vertex 259.70687578298333 131.6198563905099 104.14833605103163
    vertex 258.8784486582371 132.2555308809015 78.06000000001198
    vertex 259.70687578298333 131.6198563905099 78.06000000001198
  endloop
endfacet
facet normal -0.6087614290087263 -0.793353340291231 0.0
  outer loop
    vertex 258.8784486582371 132.2555308809015 78.06000000001198
    vertex 259.70687578298333 131.6198563905099 104.14833605103163
    vertex 258.8784486582371 132.2555308809015 104.14833605103163
  endloop
endfacet
facet normal -0.38268343236508595 -0.9238795325112884 0.0
  outer loop
    vertex 260.6715996025732 131.22025470049138 104.14833605103163
    vertex 259.70687578298333 131.6198563905099 78.06000000001198
    vertex 260.6715996025732 131.22025470049138 78.06000000001198
  endloop
endfacet
facet normal -0.38268343236508595 -0.9238795325112884 0.0
  outer loop
    vertex 259.70687578298333 131.6198563905099 78.06000000001198
    vertex 260.6715996025732 131.22025470049138 104.14833605103163
    vertex 259.70687578298333 131.6198563905099 104.14833605103163
  endloop
endfacet
facet normal -0.13052619222005077 -0.9914448613738106 0.0
  outer loop
    vertex 261.70687578298333 131.08395800564767 104.14833605103163
    vertex 260.6715996025732 131.22025470049138 78.06000000001198
    vertex 261.70687578298333 131.08395800564767 78.06000000001198
  endloop
endfacet
facet normal -0.13052619222005077 -0.9914448613738106 0.0
  outer loop
    vertex 260.6715996025732 131.22025470049138 78.06000000001198
    vertex 261.70687578298333 131.08395800564767 104.14833605103163
    vertex 260.6715996025732 131.22025470049138 104.14833605103163
  endloop
endfacet
facet normal 0.13052619222005077 -0.9914448613738106 0.0
  outer loop
    vertex 262.74215196339344 131.22025470049138 104.14833605103163
    vertex 261.70687578298333 131.08395800564767 78.06000000001198
    vertex 262.74215196339344 131.22025470049138 78.06000000001198
  endloop
endfacet
facet normal 0.13052619222005077 -0.9914448613738106 0.0
  outer loop
    vertex 261.70687578298333 131.08395800564767 78.06000000001198
    vertex 262.74215196339344 131.22025470049138 104.14833605103163
    vertex 261.70687578298333 131.08395800564767 104.14833605103163
  endloop
endfacet
facet normal 0.38268343236508595 -0.9238795325112884 0.0
  outer loop
    vertex 263.70687578298333 131.6198563905099 104.14833605103163
    vertex 262.74215196339344 131.22025470049138 78.06000000001198
    vertex 263.70687578298333 131.6198563905099 78.06000000001198
  endloop
endfacet
facet normal 0.38268343236508595 -0.9238795325112884 0.0
  outer loop
    vertex 262.74215196339344 131.22025470049138 78.06000000001198
    vertex 263.70687578298333 131.6198563905099 104.14833605103163
    vertex 262.74215196339344 131.22025470049138 104.14833605103163
  endloop
endfacet
facet normal 0.6087614290087263 -0.793353340291231 0.0
  outer loop
    vertex 264.53530290772954 132.2555308809015 104.14833605103163
    vertex 263.70687578298333 131.6198563905099 78.06000000001198
    vertex 264.53530290772954 132.2555308809015 78.06000000001198
  endloop
endfacet
facet normal 0.6087614290087263 -0.793353340291231 0.0
  outer loop
    vertex 263.70687578298333 131.6198563905099 78.06000000001198
    vertex 264.53530290772954 132.2555308809015 104.14833605103163
    vertex 263.70687578298333 131.6198563905099 104.14833605103163
  endloop
endfacet
facet normal 0.7933533402912437 -0.6087614290087096 0.0
  outer loop
    vertex 265.17097739812107 133.08395800564767 78.06000000001198
    vertex 264.53530290772954 132.2555308809015 104.14833605103163
    vertex 264.53530290772954 132.2555308809015 78.06000000001198
  endloop
endfacet
facet normal 0.7933533402912437 -0.6087614290087096 0.0
  outer loop
    vertex 264.53530290772954 132.2555308809015 104.14833605103163
    vertex 265.17097739812107 133.08395800564767 78.06000000001198
    vertex 265.17097739812107 133.08395800564767 104.14833605103163
  endloop
endfacet
facet normal 0.9238795325112731 -0.38268343236512276 0.0
  outer loop
    vertex 265.5705790881396 134.04868182523757 78.06000000001198
    vertex 265.17097739812107 133.08395800564767 104.14833605103163
    vertex 265.17097739812107 133.08395800564767 78.06000000001198
  endloop
endfacet
facet normal 0.9238795325112731 -0.38268343236512276 0.0
  outer loop
    vertex 265.17097739812107 133.08395800564767 104.14833605103163
    vertex 265.5705790881396 134.04868182523757 78.06000000001198
    vertex 265.5705790881396 134.04868182523757 104.14833605103163
  endloop
endfacet
facet normal 0.9914448613738135 -0.13052619222002954 0.0
  outer loop
    vertex 265.70687578298333 135.08395800564764 78.06000000001198
    vertex 265.5705790881396 134.04868182523757 104.14833605103163
    vertex 265.5705790881396 134.04868182523757 78.06000000001198
  endloop
endfacet
facet normal 0.9914448613738135 -0.13052619222002954 0.0
  outer loop
    vertex 265.5705790881396 134.04868182523757 104.14833605103163
    vertex 265.70687578298333 135.08395800564764 78.06000000001198
    vertex 265.70687578298333 135.08395800564764 104.14833605103163
  endloop
endfacet
facet normal 0.9914448613738129 0.1305261922200323 0.0
  outer loop
    vertex 265.5705790881396 136.11923418605772 78.06000000001198
    vertex 265.70687578298333 135.08395800564764 104.14833605103163
    vertex 265.70687578298333 135.08395800564764 78.06000000001198
  endloop
endfacet
facet normal 0.9914448613738129 0.1305261922200323 0.0
  outer loop
    vertex 265.70687578298333 135.08395800564764 104.14833605103163
    vertex 265.5705790881396 136.11923418605772 78.06000000001198
    vertex 265.5705790881396 136.11923418605772 104.14833605103163
  endloop
endfacet
facet normal 0.9914448613738178 0.130526192219996 0.0
  outer loop
    vertex 258.9042870948093 135.08395800564764 73.06000000001197
    vertex 258.9997829886104 134.35859467755932 78.06000000001198
    vertex 258.9997829886104 134.35859467755932 73.06000000001197
  endloop
endfacet
facet normal 0.9914448613738178 0.130526192219996 0.0
  outer loop
    vertex 258.9997829886104 134.35859467755932 78.06000000001198
    vertex 258.9042870948093 135.08395800564764 73.06000000001197
    vertex 258.9042870948093 135.08395800564764 78.06000000001198
  endloop
endfacet
facet normal 0.9914448613738178 -0.130526192219996 0.0
  outer loop
    vertex 258.9997829886104 135.80932133373597 73.06000000001197
    vertex 258.9042870948093 135.08395800564764 78.06000000001198
    vertex 258.9042870948093 135.08395800564764 73.06000000001197
  endloop
endfacet
facet normal 0.9914448613738178 -0.130526192219996 0.0
  outer loop
    vertex 258.9042870948093 135.08395800564764 78.06000000001198
    vertex 258.9997829886104 135.80932133373597 73.06000000001197
    vertex 258.9997829886104 135.80932133373597 78.06000000001198
  endloop
endfacet
facet normal 0.923879532511281 -0.38268343236510416 0.0
  outer loop
    vertex 259.2797627826657 136.48525234973468 73.06000000001197
    vertex 258.9997829886104 135.80932133373597 78.06000000001198
    vertex 258.9997829886104 135.80932133373597 73.06000000001197
  endloop
endfacet
facet normal 0.923879532511281 -0.38268343236510416 0.0
  outer loop
    vertex 258.9997829886104 135.80932133373597 78.06000000001198
    vertex 259.2797627826657 136.48525234973468 73.06000000001197
    vertex 259.2797627826657 136.48525234973468 78.06000000001198
  endloop
endfacet
facet normal 0.793353340291244 -0.6087614290087092 0.0
  outer loop
    vertex 259.6624330915055 136.98395800564765 73.06000000001197
    vertex 259.2797627826657 136.48525234973468 78.06000000001198
    vertex 259.2797627826657 136.48525234973468 73.06000000001197
  endloop
endfacet
facet normal 0.793353340291244 -0.6087614290087092 0.0
  outer loop
    vertex 259.2797627826657 136.48525234973468 78.06000000001198
    vertex 259.6624330915055 136.98395800564765 73.06000000001197
    vertex 259.6624330915055 136.98395800564765 78.06000000001198
  endloop
endfacet
facet normal 0.0 -1.0 0.0
  outer loop
    vertex 263.7513184744612 136.98395800564765 78.06000000001198
    vertex 259.6624330915055 136.98395800564765 73.06000000001197
    vertex 263.7513184744612 136.98395800564765 73.06000000001197
  endloop
endfacet
facet normal 0.0 -1.0 0.0
  outer loop
    vertex 259.6624330915055 136.98395800564765 73.06000000001197
    vertex 263.7513184744612 136.98395800564765 78.06000000001198
    vertex 259.6624330915055 136.98395800564765 78.06000000001198
  endloop
endfacet
facet normal -0.7933533402912575 -0.6087614290086918 -0.0
  outer loop
    vertex 263.7513184744612 136.98395800564765 78.06000000001198
    vertex 264.13398878330094 136.48525234973468 73.06000000001197
    vertex 264.13398878330094 136.48525234973468 78.06000000001198
  endloop
endfacet
facet normal -0.7933533402912575 -0.6087614290086918 -0.0
  outer loop
    vertex 264.13398878330094 136.48525234973468 73.06000000001197
    vertex 263.7513184744612 136.98395800564765 78.06000000001198
    vertex 263.7513184744612 136.98395800564765 73.06000000001197
  endloop
endfacet
facet normal -0.9238795325112764 -0.38268343236511504 -0.0
  outer loop
    vertex 264.13398878330094 136.48525234973468 78.06000000001198
    vertex 264.4139685773563 135.80932133373597 73.06000000001197
    vertex 264.4139685773563 135.80932133373597 78.06000000001198
  endloop
endfacet
facet normal -0.9238795325112764 -0.38268343236511504 -0.0
  outer loop
    vertex 264.4139685773563 135.80932133373597 73.06000000001197
    vertex 264.13398878330094 136.48525234973468 78.06000000001198
    vertex 264.13398878330094 136.48525234973468 73.06000000001197
  endloop
endfacet
facet normal -0.9914448613738097 -0.1305261922200566 -0.0
  outer loop
    vertex 264.4139685773563 135.80932133373597 78.06000000001198
    vertex 264.5094644711574 135.08395800564764 73.06000000001197
    vertex 264.5094644711574 135.08395800564764 78.06000000001198
  endloop
endfacet
facet normal -0.9914448613738097 -0.1305261922200566 -0.0
  outer loop
    vertex 264.5094644711574 135.08395800564764 73.06000000001197
    vertex 264.4139685773563 135.80932133373597 78.06000000001198
    vertex 264.4139685773563 135.80932133373597 73.06000000001197
  endloop
endfacet
facet normal -0.9914448613738103 0.13052619222005263 0.0
  outer loop
    vertex 264.5094644711574 135.08395800564764 78.06000000001198
    vertex 264.4139685773563 134.35859467755932 73.06000000001197
    vertex 264.4139685773563 134.35859467755932 78.06000000001198
  endloop
endfacet
facet normal -0.9914448613738103 0.13052619222005263 0.0
  outer loop
    vertex 264.4139685773563 134.35859467755932 73.06000000001197
    vertex 264.5094644711574 135.08395800564764 78.06000000001198
    vertex 264.5094644711574 135.08395800564764 73.06000000001197
  endloop
endfacet
facet normal -0.9238795325112982 0.38268343236506236 0.0
  outer loop
    vertex 264.4139685773563 134.35859467755932 78.06000000001198
    vertex 264.133988783301 133.6826636615606 73.06000000001197
    vertex 264.133988783301 133.6826636615606 78.06000000001198
  endloop
endfacet
facet normal -0.9238795325112982 0.38268343236506236 0.0
  outer loop
    vertex 264.133988783301 133.6826636615606 73.06000000001197
    vertex 264.4139685773563 134.35859467755932 78.06000000001198
    vertex 264.4139685773563 134.35859467755932 73.06000000001197
  endloop
endfacet
facet normal -0.7933533402912093 0.6087614290087543 0.0
  outer loop
    vertex 264.133988783301 133.6826636615606 78.06000000001198
    vertex 263.7513184744612 133.18395800564767 73.06000000001197
    vertex 263.7513184744612 133.18395800564767 78.06000000001198
  endloop
endfacet
facet normal -0.7933533402912093 0.6087614290087543 0.0
  outer loop
    vertex 263.7513184744612 133.18395800564767 73.06000000001197
    vertex 264.133988783301 133.6826636615606 78.06000000001198
    vertex 264.133988783301 133.6826636615606 73.06000000001197
  endloop
endfacet
facet normal 0.0 1.0 0.0
  outer loop
    vertex 259.6624330915055 133.18395800564767 78.06000000001198
    vertex 263.7513184744612 133.18395800564767 73.06000000001197
    vertex 259.6624330915055 133.18395800564767 73.06000000001197
  endloop
endfacet
facet normal 0.0 1.0 0.0
  outer loop
    vertex 263.7513184744612 133.18395800564767 73.06000000001197
    vertex 259.6624330915055 133.18395800564767 78.06000000001198
    vertex 263.7513184744612 133.18395800564767 78.06000000001198
  endloop
endfacet
facet normal 0.7933533402912575 0.6087614290086918 0.0
  outer loop
    vertex 259.2797627826657 133.68266366156064 73.06000000001197
    vertex 259.6624330915055 133.18395800564767 78.06000000001198
    vertex 259.6624330915055 133.18395800564767 73.06000000001197
  endloop
endfacet
facet normal 0.7933533402912575 0.6087614290086918 0.0
  outer loop
    vertex 259.6624330915055 133.18395800564767 78.06000000001198
    vertex 259.2797627826657 133.68266366156064 73.06000000001197
    vertex 259.2797627826657 133.68266366156064 78.06000000001198
  endloop
endfacet
facet normal 0.9238795325112764 0.38268343236511504 0.0
  outer loop
    vertex 258.9997829886104 134.35859467755932 73.06000000001197
    vertex 259.2797627826657 133.68266366156064 78.06000000001198
    vertex 259.2797627826657 133.68266366156064 73.06000000001197
  endloop
endfacet
facet normal 0.9238795325112764 0.38268343236511504 0.0
  outer loop
    vertex 259.2797627826657 133.68266366156064 78.06000000001198
    vertex 258.9997829886104 134.35859467755932 73.06000000001197
    vertex 258.9997829886104 134.35859467755932 78.06000000001198
  endloop
endfacet
endsolid arduino_car_PRINTED.skpb
